<svg id="_platform-logo-final" data-name=" platform-logo-final" xmlns="http://www.w3.org/2000/svg" viewBox="0 0 856.23 156"><g id="platform"><path d="M157.28,147.51v-104c0-5,2.75-7.78,7.78-7.78h9.55c5,0,7.78,2.75,7.78,7.78v3.88c6-9.23,15.71-13.44,26.73-13.44,23.33,0,40,18.95,40,43.42s-16.68,43.41-40,43.41c-11,0-20.74-4.21-26.73-13.61v40.34c0,5-2.75,7.78-7.78,7.78h-9.55C160,155.29,157.28,152.53,157.28,147.51ZM224,77.37C224,64.57,216.41,54,203.29,54c-12.8,0-21.22,10-21.22,23.33s8.42,23.32,21.22,23.32C216.41,100.69,224,90.33,224,77.37Z" style="fill:#939598"/><path d="M264.52,111.22V9.65c0-5,2.75-7.78,7.78-7.78h9.39c5,0,7.94,2.76,7.94,7.78V111.22c0,5-2.91,7.78-7.94,7.78H272.3C267.27,119,264.52,116.25,264.52,111.22Z" style="fill:#939598"/><path d="M304.86,77.37c0-24.47,16.68-43.42,40-43.42,11,0,20.74,4.21,26.73,13.61V43.51c0-5,2.76-7.78,7.78-7.78h9.56c5,0,7.77,2.75,7.77,7.78v67.71c0,5-2.75,7.78-7.77,7.78h-9.56c-5,0-7.78-2.75-7.78-7.78v-3.88c-6,9.23-15.71,13.44-26.73,13.44C321.54,120.78,304.86,102,304.86,77.37Zm67.07,0c0-13.29-8.43-23.33-21.22-23.33C337.58,54,330,64.57,330,77.37c0,13,7.61,23.32,20.74,23.32C363.5,100.69,371.93,90.65,371.93,77.37Z" style="fill:#939598"/><path d="M422.15,91.3V54.36h-8.27c-2.59,0-4.21-1.46-4.21-4V39.78c0-2.59,1.62-4.05,4.21-4.05h10.21l2.75-16.85a5.91,5.91,0,0,1,6.32-5.18h7.94c3.73,0,5.67,2.1,5.67,5.67V35.73h18.79A3.67,3.67,0,0,1,469.61,39a3.57,3.57,0,0,1,0,.8V50.31a3.66,3.66,0,0,1-3.3,4,3.14,3.14,0,0,1-.75,0H446.77v37.8c0,6.15,3.08,8.58,6.8,8.58,4.22,0,7-3.24,7-7.61a20.34,20.34,0,0,0-.16-2.92c-.33-2.91.65-4.37,3.4-4.37h9.88c2.11,0,3.89.81,4.54,3.24a28.14,28.14,0,0,1,1,6.32c0,18-12.8,25.43-27.86,25.43C437.21,120.78,422.15,114.3,422.15,91.3Z" style="fill:#939598"/><path d="M495.85,111.22V54.36H488.4a3.67,3.67,0,0,1-4-3.31,4,4,0,0,1,0-.69V40.92c0-2.6,1.46-4.06,4-4.06h7.45V31.52C495.85,6.08,512.7.09,526.63.09c14.58,0,27.87,6.8,27.87,22.19a14.12,14.12,0,0,1-.33,2.6A3.6,3.6,0,0,1,550.29,28H538.62c-2.1,0-3.4-1.29-3.4-2.91v-1c0-3.08-3.08-5.35-7-5.35-5.18,0-7.93,3.56-7.93,9.56v8.58H534.9c2.59,0,4.05,1.46,4.05,4.06v9.39a3.66,3.66,0,0,1-3.3,4,3.14,3.14,0,0,1-.75,0H520.8v56.86c0,5-2.91,7.78-7.94,7.78h-9.23C498.61,119,495.85,116.25,495.85,111.22Z" style="fill:#939598"/><path d="M545.75,77.37c0-24,19.76-43.42,46.17-43.42s46.17,19.44,46.17,43.42-19.76,43.41-46.17,43.41S545.75,101.5,545.75,77.37Zm68.53.16c0-13.12-9.89-23.17-22.36-23.17-12.64,0-22.36,10-22.36,23.17,0,13,9.72,23,22.36,23C604.39,100.53,614.28,90.49,614.28,77.53Z" style="fill:#939598"/><path d="M652.83,111.22V43.51c0-5,2.75-7.78,7.78-7.78h8.91c5,0,7.77,2.75,7.77,7.78V53.87C680.05,38.65,691.71,34,698.84,34l2.75.16c3.89.32,4.7,3.4,4.7,6.64V52.09c0,4.54-2.27,6.48-5.67,6a33.53,33.53,0,0,0-4-.33C686.9,57.76,678,64.08,678,85v26.24c0,5-2.75,7.78-7.77,7.78h-9.56C655.58,119,652.83,116.25,652.83,111.22Z" style="fill:#939598"/><path d="M718.12,111.22V43.51c0-5,2.75-7.78,7.77-7.78h9.56c5,0,7.78,2.75,7.78,7.78V49c3.24-9.54,12.15-15,22.52-15,9.55,0,18.79,4,24.13,14.42C797.66,36.05,807.22,34,816.61,34c21.55,0,30.62,17.66,30.62,37.26v40c0,5-2.91,7.78-7.94,7.78H829.9c-5,0-7.78-2.75-7.78-7.78V72.34c0-11.66-4.53-18-12-18-7,0-14.58,5.67-14.9,20.9v36c0,5-2.75,7.78-7.78,7.78H777.9c-5,0-7.78-2.75-7.78-7.78V72.34c0-11.66-4.37-18-11.83-18s-15.06,6.16-15.06,21.71V111.2c0,5-2.76,7.78-7.78,7.78h-9.56C720.87,119,718.12,116.25,718.12,111.22Z" style="fill:#939598"/></g><path id="Path_13" data-name="Path 13" d="M64.71,148.23c10.19,0,21.52-1.84,30.3-5.52,1.7-.57,2-2,1.13-3.68l-1.56-3.11c-.85-1.7-2.12-2-3.82-1.42-7.5,3-17.13,4.39-26.05,4.39-32.85,0-54.94-25.35-54.94-58.47,0-33.56,24.21-58.9,57.49-58.9S123.32,43.89,123.32,75c0,22.65-7.22,33.41-17.84,33.55-2.83.15-5.8-1.55-5.8-7.78V53.37c0-3.12-1.84-4.95-5-4.95H85c-3.11,0-5,1.84-5,4.95v5.1C75.18,50.54,67.53,47,58.89,47c-18.4,0-31.43,14.87-31.43,34.41s13.18,34.12,31.16,34.12c7.93,0,18.26-3.54,23.22-12l.28,2c2.13,9.35,9.91,14,21.38,14,17.13,0,29.59-14.44,29.59-44.46,0-36.95-26.47-62.87-65.84-62.87C28.46,12.17,0,41.33,0,80.42,0,119.35,25.91,148.23,64.71,148.23Zm-1-48.42c-10.06,0-16.29-8.21-16.29-18.41S53.52,63,63.72,63s16.42,7.93,16.42,18.54S73.48,99.81,63.72,99.81Z" style="fill:#f05f3e"/></svg>