<?xml version="1.0" encoding="UTF-8"?><svg id="Layer_1" xmlns="http://www.w3.org/2000/svg" viewBox="0 0 1637.43 436.29"><path d="M98.78,205.99c6.18-12,14.58-21.23,25.2-27.7,10.61-6.46,22.48-9.69,35.59-9.69,11.45,0,21.46,2.31,30.05,6.92,8.58,4.62,15.46,10.43,20.63,17.45v-21.88h39.05v153.43h-39.05v-22.43c-4.99,7.2-11.87,13.16-20.63,17.86-8.77,4.71-18.88,7.06-30.33,7.06-12.93,0-24.7-3.32-35.31-9.97-10.62-6.65-19.02-16.02-25.2-28.11-6.19-12.09-9.28-25.99-9.28-41.68s3.09-29.26,9.28-41.26Zm105.93,17.59c-3.7-6.74-8.68-11.91-14.96-15.51-6.28-3.6-13.02-5.4-20.22-5.4s-13.85,1.76-19.94,5.26c-6.09,3.51-11.03,8.63-14.82,15.37-3.79,6.74-5.68,14.73-5.68,23.96s1.89,17.31,5.68,24.23c3.78,6.92,8.77,12.23,14.96,15.92,6.18,3.7,12.78,5.54,19.8,5.54s13.94-1.8,20.22-5.4c6.27-3.6,11.26-8.77,14.96-15.51,3.69-6.74,5.54-14.82,5.54-24.23s-1.85-17.49-5.54-24.23Z" style="fill:#ff5c35;"/><path d="M329.62,202.94v74.22c0,5.17,1.25,8.91,3.74,11.22,2.49,2.31,6.69,3.46,12.6,3.46h18v32.68h-24.37c-32.68,0-49.02-15.88-49.02-47.64v-73.95h-18.28v-31.85h18.28v-37.94h39.05v37.94h34.34v31.85h-34.34Z" style="fill:#ff5c35;"/><path d="M522.8,220.11c-4.89,9.05-12.56,16.34-22.99,21.88-10.43,5.54-23.59,8.31-39.46,8.31h-32.4v74.22h-38.77V131.21h71.18c14.96,0,27.69,2.59,38.22,7.75,10.52,5.17,18.42,12.28,23.68,21.33,5.26,9.05,7.89,19.3,7.89,30.74,0,10.34-2.45,20.04-7.34,29.08Zm-40.3-8.45c5.17-4.89,7.75-11.77,7.75-20.63,0-18.83-10.52-28.25-31.57-28.25h-30.74v56.22h30.74c10.71,0,18.65-2.45,23.82-7.34Z" style="fill:#9b9b9b;"/><path d="M593.56,119.58v204.94h-38.77V119.58h38.77Z" style="fill:#9b9b9b;"/><path d="M628.31,205.99c6.18-12,14.58-21.23,25.2-27.7,10.61-6.46,22.48-9.69,35.59-9.69,11.45,0,21.46,2.31,30.05,6.92,8.58,4.62,15.46,10.43,20.63,17.45v-21.88h39.05v153.43h-39.05v-22.43c-4.99,7.2-11.87,13.16-20.63,17.86-8.77,4.71-18.88,7.06-30.33,7.06-12.93,0-24.7-3.32-35.31-9.97-10.62-6.65-19.02-16.02-25.2-28.11-6.19-12.09-9.28-25.99-9.28-41.68s3.09-29.26,9.28-41.26Zm105.93,17.59c-3.7-6.74-8.68-11.91-14.96-15.51-6.28-3.6-13.02-5.4-20.22-5.4s-13.85,1.76-19.94,5.26c-6.09,3.51-11.03,8.63-14.82,15.37-3.79,6.74-5.68,14.73-5.68,23.96s1.89,17.31,5.68,24.23c3.78,6.92,8.77,12.23,14.96,15.92,6.18,3.7,12.78,5.54,19.8,5.54s13.94-1.8,20.22-5.4c6.27-3.6,11.26-8.77,14.96-15.51,3.69-6.74,5.54-14.82,5.54-24.23s-1.85-17.49-5.54-24.23Z" style="fill:#9b9b9b;"/><path d="M859.15,202.94v74.22c0,5.17,1.25,8.91,3.74,11.22,2.49,2.31,6.69,3.46,12.6,3.46h18v32.68h-24.37c-32.68,0-49.02-15.88-49.02-47.64v-73.95h-18.28v-31.85h18.28v-37.94h39.05v37.94h34.34v31.85h-34.34Z" style="fill:#9b9b9b;"/><path d="M989.04,202.94h-26.86v121.58h-39.33v-121.58h-17.45v-31.85h17.45v-7.75c0-18.83,5.35-32.68,16.06-41.54,10.71-8.86,26.86-13.02,48.47-12.46v32.68c-9.42-.18-15.97,1.38-19.66,4.71-3.7,3.32-5.54,9.33-5.54,18v6.37h26.86v31.85Z" style="fill:#9b9b9b;"/><path d="M1039.72,317.18c-11.82-6.55-21.1-15.83-27.83-27.83-6.74-12-10.11-25.85-10.11-41.54s3.46-29.54,10.39-41.54c6.92-12,16.38-21.28,28.39-27.83,12-6.55,25.38-9.83,40.16-9.83s28.15,3.28,40.16,9.83c12,6.56,21.46,15.83,28.39,27.83,6.92,12,10.38,25.85,10.38,41.54s-3.56,29.54-10.66,41.54c-7.11,12-16.71,21.28-28.8,27.83-12.09,6.56-25.62,9.83-40.57,9.83s-28.07-3.28-39.88-9.83Zm59.68-29.08c6.18-3.41,11.12-8.54,14.82-15.37,3.69-6.83,5.54-15.14,5.54-24.92,0-14.58-3.83-25.8-11.49-33.65-7.66-7.85-17.03-11.77-28.11-11.77s-20.36,3.92-27.83,11.77c-7.48,7.85-11.22,19.07-11.22,33.65s3.64,25.8,10.94,33.65c7.29,7.85,16.48,11.77,27.56,11.77,7.01,0,13.61-1.71,19.8-5.12Z" style="fill:#9b9b9b;"/><path d="M1243.7,175.8c8.03-4.61,17.21-6.92,27.56-6.92v40.71h-10.25c-12.19,0-21.37,2.87-27.56,8.59-6.19,5.72-9.28,15.7-9.28,29.91v76.44h-38.77V171.09h38.77v23.82c4.98-8.12,11.49-14.49,19.52-19.11Z" style="fill:#9b9b9b;"/><path d="M1530.62,186.18c11.54,11.54,17.31,27.65,17.31,48.33v90.01h-38.77v-84.75c0-12-3.05-21.19-9.14-27.56-6.09-6.37-14.4-9.55-24.93-9.55s-18.88,3.19-25.06,9.55c-6.19,6.37-9.28,15.56-9.28,27.56v84.75h-38.77v-84.75c0-12-3.05-21.19-9.14-27.56-6.09-6.37-14.4-9.55-24.93-9.55s-19.16,3.19-25.34,9.55c-6.19,6.37-9.28,15.56-9.28,27.56v84.75h-38.77V171.09h38.77v18.56c4.98-6.46,11.4-11.54,19.25-15.23,7.84-3.69,16.48-5.54,25.89-5.54,12,0,22.71,2.54,32.13,7.62,9.42,5.08,16.71,12.32,21.88,21.74,4.99-8.86,12.23-15.97,21.74-21.33,9.51-5.35,19.8-8.03,30.88-8.03,18.83,0,34.02,5.77,45.56,17.31Z" style="fill:#9b9b9b;"/></svg>