<svg xmlns="http://www.w3.org/2000/svg" width="750" height="766" viewBox="0 0 750 766">
  <g id="Group_7619" data-name="Group 7619" transform="translate(-8743 -7178)">
    <rect id="Rectangle_3519" data-name="Rectangle 3519" width="750" height="766" transform="translate(8743 7178)" fill="#789e74"/>
    <path id="Path_23274" data-name="Path 23274" d="M331.668,787.09H509.228a35.076,35.076,0,1,0,0-70.153L384.1,716.731H316.59c-2.222,0-4.444-.009-6.666,0-6.814.026-13.231-1.844-18.049-6.915-8.358-8.8-6.014-22.973-5.922-34.21l.336-40.789.357-43.251.217-26.388.014-1.74c1.371-37.178-1.987-74.676,3.74-111.609,5.6-36.138,25.916-69.18,51.479-94.744,83.774-83.774,219.6-83.774,303.373,0,59.8,59.8,78.917,151.712,47.922,230.416a213.322,213.322,0,0,1-24.654,45.466c-10.094,14.185-22.857,33.089-41.246,36.05-11.834,1.9-23.95-2.492-32.359-10.9-14.547-14.547-15.2-37.483-1.451-51.229l-.341.341a141.526,141.526,0,1,0-200.147,0l.306.3a35.963,35.963,0,0,0,50.449-.4,34.931,34.931,0,0,0,8.635-34.661c-3.641-12.341-13.271-21.278-19.549-32.222-6.024-10.5-9.63-21.9-9.57-34.086a70.7,70.7,0,1,1,139.056,18.373c-3.307,12.562-9.92,22.4-18.567,31.82-22.792,24.824-34.8,57.064-29.883,90.8a106.439,106.439,0,0,0,180.571,59.829c110.788-110.788,110.788-290.411,0-401.2a285.509,285.509,0,0,0-226.952-81.872c-94.811,8.793-189.451,69.3-228.562,157.731-20.175,45.611-23.851,95.01-23.476,144.35l-.244,157.6-.012,81.453a22.155,22.155,0,0,0,22.089,22.09Z" transform="translate(8621.437 7056.077)" fill="#fcd003"/>
  </g>
</svg>
