<svg xmlns="http://www.w3.org/2000/svg" width="716.001" height="1024.59" viewBox="0 0 716.001 1024.59">
  <path id="Path_23273" data-name="Path 23273" d="M1088.583,821.255c16.306,63.755,6.116,133.266-24.834,191.34-6.356,11.926-13.872,23.75-25.02,31.388s-26.723,10.177-38.175,3c-14.028-8.791-16.951-27.74-17.477-44.287-2.007-63.055,9.995-129.015-13.914-187.4-22.51-54.967-76.279-94.694-134.856-104.537-84.722-14.236-176.4,36.711-207.553,116.774s2.932,180.606,77.163,223.854,179.678,22.466,230.7-46.654c-15.379,39.589,15.323,87.029,56.45,97.631s85.768-9.657,113.382-41.925,40.7-74.547,47.728-116.432c7.815-46.546,8.921-94.874-3.262-140.473-12.041-45.069-36.468-85.674-60.6-125.6L822.8,238.678c-9.03-14.939-22.563-32.037-39.7-28.707-12.1,2.352-19.642,14.141-25.746,24.854Q621.017,474.15,484.678,713.474c-70.023,122.915-51.809,288.878,40.368,396.185s250.789,150.6,385.9,108.685c12.415-3.852,25.111-8.655,34.038-18.1s12.882-24.779,5.82-35.692c-11.366-17.565-37.9-11.4-57.854-5.116-98.663,31.07-213.059,9.359-291.328-58.27S485.242,921.487,509.256,820.874c12.161-50.951,38.527-97.192,64.572-142.639L789.183,302.451,1024.9,688.957c25.583,41.949,51.509,84.7,63.685,132.3M689.129,963.915c-14.44-23.128-20.337-51.028-19.079-78.264,2.174-47.037,32.012-91.752,74.581-111.877S840.654,758.955,878.479,787,936.915,864.6,930.2,911.2s-40.452,88.3-84.6,104.671-96.873,6.764-132.459-24.07A123.876,123.876,0,0,1,689.129,963.915Z" transform="translate(-442.064 -209.551)" fill="#f05e3e"/>
</svg>
