<svg id="svg" version="1.1" xmlns="http://www.w3.org/2000/svg" xmlns:xlink="http://www.w3.org/1999/xlink" width="400" height="400" viewBox="0, 0, 400,400"><g id="svgg"><path id="path0" d="M191.571 65.591 C 189.955 66.445,189.125 67.600,185.494 74.048 C 184.084 76.552,182.519 79.320,182.016 80.200 C 180.303 83.197,177.580 88.007,176.522 89.906 C 175.941 90.948,174.134 94.111,172.505 96.936 C 170.877 99.760,169.077 102.910,168.506 103.936 C 167.935 104.961,166.122 108.140,164.476 111.000 C 161.013 117.019,159.549 119.619,156.812 124.600 C 156.087 125.920,155.355 127.180,155.186 127.400 C 155.016 127.620,154.436 128.610,153.896 129.600 C 153.357 130.590,151.744 133.470,150.311 136.000 C 148.878 138.530,147.319 141.286,146.846 142.124 C 146.374 142.962,145.242 144.942,144.333 146.524 C 143.423 148.106,142.238 150.210,141.701 151.200 C 141.163 152.190,140.584 153.180,140.415 153.400 C 140.246 153.620,139.660 154.610,139.113 155.600 C 138.567 156.590,136.901 159.560,135.412 162.200 C 133.923 164.840,132.303 167.720,131.813 168.600 C 131.322 169.480,130.246 171.370,129.421 172.800 C 128.596 174.230,127.370 176.390,126.695 177.600 C 126.021 178.810,124.123 182.140,122.477 185.000 C 119.367 190.407,119.004 191.044,116.212 196.000 C 110.712 205.764,109.652 208.211,106.423 218.600 C 106.048 219.806,105.409 222.886,104.761 226.600 C 103.508 233.793,103.344 246.862,104.431 252.979 C 105.562 259.337,106.613 264.291,107.195 266.000 C 107.383 266.550,107.849 268.080,108.231 269.400 C 108.613 270.720,109.077 271.971,109.263 272.180 C 109.448 272.389,109.600 272.812,109.600 273.120 C 109.600 274.328,114.697 284.807,117.617 289.600 C 128.095 306.803,146.335 321.856,164.646 328.414 C 165.941 328.878,167.360 329.416,167.800 329.610 C 169.191 330.223,174.736 331.689,178.800 332.518 C 186.063 334.000,188.341 334.200,198.000 334.200 C 207.614 334.200,209.254 334.057,216.800 332.555 C 222.298 331.461,232.445 328.395,233.380 327.545 C 233.589 327.355,234.029 327.200,234.357 327.200 C 236.633 327.200,239.117 321.790,238.369 318.461 C 237.283 313.626,231.358 310.957,227.000 313.339 C 226.340 313.700,225.573 313.996,225.295 313.998 C 225.017 313.999,224.477 314.158,224.095 314.352 C 223.713 314.545,222.500 314.974,221.400 315.305 C 219.528 315.868,218.657 316.104,214.600 317.149 C 206.931 319.124,189.010 319.122,181.400 317.145 C 177.071 316.021,173.037 314.858,171.800 314.379 C 165.323 311.870,158.618 308.654,157.169 307.363 C 156.821 307.053,156.415 306.800,156.266 306.800 C 154.668 306.800,141.197 295.089,137.352 290.357 C 135.784 288.428,131.200 282.090,131.200 281.851 C 131.200 281.722,130.607 280.667,129.883 279.508 C 128.663 277.556,126.534 273.335,125.087 270.000 C 124.168 267.884,122.540 262.920,121.806 260.000 C 121.446 258.570,120.991 256.770,120.795 256.000 C 118.942 248.735,118.942 231.564,120.795 225.400 C 120.994 224.740,121.456 223.120,121.822 221.800 C 123.531 215.636,125.818 210.274,128.817 205.400 C 129.630 204.080,131.644 200.570,133.294 197.600 C 137.462 190.097,137.823 189.465,138.979 187.634 C 139.540 186.744,140.000 185.919,140.000 185.800 C 140.000 185.681,140.422 184.913,140.937 184.092 C 141.452 183.271,142.472 181.520,143.202 180.200 C 145.369 176.285,145.907 175.332,150.203 167.800 C 152.461 163.840,154.692 159.914,155.161 159.076 C 156.888 155.988,159.321 151.766,160.047 150.600 C 160.457 149.940,160.921 149.130,161.076 148.800 C 161.232 148.470,161.971 147.120,162.719 145.800 C 163.467 144.480,164.631 142.410,165.306 141.200 C 166.363 139.306,169.350 134.103,173.688 126.600 C 174.324 125.500,174.945 124.285,175.069 123.900 C 175.192 123.515,175.452 123.200,175.647 123.200 C 175.841 123.200,176.000 123.014,176.000 122.786 C 176.000 122.558,176.788 120.983,177.751 119.286 C 178.714 117.589,179.904 115.480,180.396 114.600 C 180.888 113.720,181.970 111.830,182.801 110.400 C 183.632 108.970,184.762 106.990,185.312 106.000 C 190.347 96.944,195.332 88.400,195.580 88.400 C 195.711 88.400,196.883 90.122,198.186 92.228 C 201.307 97.273,201.543 97.678,201.840 98.500 C 201.979 98.885,202.252 99.200,202.447 99.200 C 202.641 99.200,202.800 99.382,202.800 99.604 C 202.800 99.827,203.700 101.445,204.800 103.200 C 205.900 104.955,206.800 106.495,206.800 106.622 C 206.800 106.749,207.250 107.443,207.800 108.164 C 208.350 108.886,208.800 109.580,208.800 109.707 C 208.800 109.835,210.465 112.649,212.500 115.961 C 214.535 119.273,217.730 124.523,219.600 127.628 C 223.710 134.454,229.272 143.654,232.800 149.466 C 234.230 151.821,235.866 154.570,236.435 155.574 C 237.004 156.578,238.669 159.340,240.135 161.711 C 241.601 164.081,242.800 166.118,242.800 166.237 C 242.800 166.356,243.250 167.043,243.800 167.764 C 244.350 168.486,244.800 169.180,244.800 169.308 C 244.800 169.435,246.150 171.715,247.800 174.374 C 249.450 177.033,250.800 179.386,250.800 179.604 C 250.800 179.822,250.980 180.000,251.200 180.000 C 251.420 180.000,251.600 180.182,251.600 180.404 C 251.600 180.626,253.490 183.864,255.800 187.600 C 258.110 191.336,260.000 194.476,260.000 194.579 C 260.000 194.682,261.260 196.762,262.801 199.201 C 267.267 206.273,272.800 216.735,272.800 218.108 C 272.800 218.401,272.954 218.811,273.142 219.020 C 273.598 219.526,274.582 222.749,275.335 226.200 C 278.269 239.651,276.698 256.458,271.317 269.200 C 265.717 282.460,262.444 286.000,255.784 286.000 C 250.818 286.000,248.688 284.261,246.965 278.800 C 246.791 278.250,246.539 267.990,246.405 256.000 C 246.245 241.795,246.007 233.782,245.721 233.000 C 245.480 232.340,244.979 230.720,244.608 229.400 C 241.422 218.072,233.304 207.430,224.115 202.535 C 223.629 202.275,222.729 201.795,222.115 201.468 C 221.120 200.935,219.354 200.163,217.000 199.228 C 210.078 196.481,197.595 195.130,191.131 196.428 C 181.071 198.448,177.681 199.663,171.200 203.570 C 153.735 214.100,145.301 241.885,153.401 262.200 C 153.665 262.860,154.122 264.030,154.417 264.800 C 159.082 276.965,170.548 287.307,183.200 290.763 C 184.190 291.033,185.540 291.417,186.200 291.616 C 201.052 296.092,222.853 288.444,231.693 275.656 C 233.319 273.305,233.588 273.893,233.565 279.734 C 233.526 289.767,237.163 295.019,246.800 298.844 C 249.148 299.776,262.230 299.547,265.818 298.510 C 274.851 295.901,280.853 288.676,286.176 274.000 C 286.774 272.350,287.416 270.640,287.602 270.200 C 287.787 269.760,288.233 268.320,288.591 267.000 C 288.950 265.680,289.403 264.060,289.597 263.400 C 290.442 260.525,291.428 254.683,292.026 249.000 C 292.557 243.956,292.303 231.363,291.602 228.000 C 291.350 226.790,290.866 224.450,290.526 222.800 C 289.268 216.703,283.780 203.264,280.397 198.000 C 278.397 194.888,273.200 186.370,273.200 186.204 C 273.200 186.087,272.300 184.555,271.200 182.800 C 270.100 181.045,269.200 179.427,269.200 179.204 C 269.200 178.982,269.052 178.800,268.871 178.800 C 268.690 178.800,268.143 178.035,267.656 177.100 C 267.169 176.165,266.038 174.230,265.143 172.800 C 264.248 171.370,260.536 165.250,256.894 159.200 C 253.252 153.150,249.130 146.350,247.736 144.089 C 246.341 141.829,245.200 139.905,245.200 139.816 C 245.200 139.726,243.400 136.758,241.200 133.220 C 239.000 129.682,237.200 126.714,237.200 126.624 C 237.200 126.534,235.850 124.285,234.200 121.626 C 232.550 118.967,231.200 116.692,231.200 116.569 C 231.200 116.447,230.750 115.757,230.200 115.036 C 229.650 114.314,229.200 113.608,229.200 113.466 C 229.200 113.253,224.147 104.840,222.793 102.800 C 222.574 102.470,222.271 101.930,222.119 101.600 C 221.967 101.270,220.798 99.340,219.521 97.311 C 218.244 95.283,217.200 93.438,217.200 93.211 C 217.200 92.985,217.061 92.800,216.891 92.800 C 216.721 92.800,216.231 92.125,215.801 91.300 C 215.372 90.475,213.711 87.686,212.110 85.103 C 210.510 82.520,209.200 80.284,209.200 80.135 C 209.200 79.985,208.942 79.578,208.628 79.231 C 208.313 78.883,207.818 78.147,207.528 77.595 C 201.379 65.907,197.084 62.676,191.571 65.591 M366.000 65.440 C 347.443 71.641,351.525 99.200,371.000 99.200 C 390.652 99.200,394.787 71.016,375.956 65.424 C 373.321 64.642,368.365 64.649,366.000 65.440 M302.600 65.663 C 301.228 66.467,301.212 66.645,301.206 82.030 L 301.200 97.061 302.126 97.930 C 305.051 100.678,307.200 98.408,307.200 92.571 L 307.200 88.000 310.100 87.995 C 318.757 87.981,323.359 83.969,323.258 76.524 C 323.189 71.456,321.460 68.547,317.200 66.335 C 315.090 65.239,304.180 64.737,302.600 65.663 M329.015 66.222 L 328.000 67.317 328.013 81.958 C 328.027 97.886,327.989 97.620,330.312 98.429 C 333.426 99.515,334.400 97.732,334.400 90.950 L 334.400 86.800 336.543 86.800 C 338.939 86.800,339.350 87.238,342.921 93.600 C 345.692 98.535,347.880 99.895,349.945 97.967 C 351.417 96.593,350.931 94.702,347.836 89.753 C 344.764 84.843,344.865 85.270,346.428 83.775 C 351.924 78.516,350.477 69.562,343.600 66.279 C 342.070 65.549,340.916 65.398,335.915 65.274 L 330.029 65.127 329.015 66.222 M375.426 71.556 C 385.710 76.227,383.287 92.125,372.144 93.090 C 358.966 94.231,355.413 75.353,368.000 71.067 C 369.489 70.560,373.868 70.848,375.426 71.556 M315.476 72.542 C 319.943 76.636,316.526 82.286,309.800 81.928 L 307.400 81.800 307.288 76.500 L 307.177 71.200 310.594 71.200 C 313.914 71.200,314.054 71.238,315.476 72.542 M341.213 71.807 C 346.366 74.471,343.207 81.046,336.931 80.721 L 334.600 80.600 334.485 76.427 C 334.422 74.132,334.461 72.017,334.573 71.727 C 334.863 70.971,339.709 71.029,341.213 71.807 M208.594 211.159 C 229.591 217.044,239.423 241.036,229.095 261.186 C 224.412 270.323,217.200 275.567,205.494 278.347 C 201.107 279.389,191.121 278.755,186.600 277.146 C 183.172 275.927,178.771 273.739,177.353 272.549 C 173.152 269.025,172.240 268.115,170.672 265.888 C 168.437 262.711,166.000 257.990,166.000 256.834 C 166.000 256.589,165.836 256.077,165.635 255.695 C 164.196 252.952,163.621 240.307,164.750 236.200 C 166.834 228.614,168.900 224.697,173.155 220.260 C 176.918 216.337,180.380 214.015,185.000 212.316 C 187.455 211.413,188.644 211.070,192.200 210.239 C 194.590 209.681,205.505 210.293,208.594 211.159 " stroke="none" fill="#faf9f9" fill-rule="evenodd"></path><path id="path1" d="M0.000 200.000 L 0.000 400.000 200.000 400.000 L 400.000 400.000 400.000 256.004 L 400.000 112.009 346.029 111.904 L 292.059 111.800 290.929 110.962 C 290.308 110.502,289.395 109.422,288.900 108.562 L 288.000 107.000 288.100 81.600 L 288.200 56.200 289.195 54.729 C 291.182 51.791,286.807 52.000,346.414 52.000 L 400.000 52.000 400.000 26.000 L 400.000 0.000 200.000 0.000 L 0.000 0.000 0.000 200.000 M198.935 64.918 C 200.075 65.552,202.800 68.072,202.800 68.493 C 202.800 68.764,206.541 75.005,208.019 77.200 C 208.241 77.530,208.529 78.115,208.658 78.500 C 208.788 78.885,209.052 79.200,209.247 79.200 C 209.441 79.200,209.600 79.403,209.600 79.651 C 209.600 79.900,210.770 81.966,212.200 84.244 C 213.630 86.522,214.800 88.569,214.800 88.793 C 214.800 89.017,214.948 89.200,215.129 89.200 C 215.310 89.200,215.856 89.965,216.343 90.900 C 216.830 91.835,218.170 94.130,219.323 96.000 C 220.475 97.870,222.123 100.570,222.986 102.000 C 223.849 103.430,225.960 106.898,227.677 109.706 C 229.395 112.515,230.800 114.880,230.800 114.962 C 230.800 115.045,232.465 117.826,234.500 121.143 C 236.535 124.461,239.730 129.717,241.600 132.825 C 243.470 135.932,246.620 141.156,248.600 144.434 C 250.580 147.712,253.730 152.936,255.600 156.044 C 257.470 159.152,260.755 164.564,262.900 168.071 C 265.045 171.579,266.800 174.617,266.800 174.824 C 266.800 175.031,266.980 175.200,267.200 175.200 C 267.420 175.200,267.600 175.403,267.600 175.651 C 267.600 175.900,268.770 177.966,270.200 180.244 C 271.630 182.522,272.800 184.491,272.800 184.620 C 272.800 184.748,273.250 185.443,273.800 186.164 C 274.350 186.886,274.800 187.583,274.800 187.714 C 274.800 187.845,275.883 189.688,277.206 191.809 C 281.705 199.024,286.056 207.345,287.764 212.000 C 288.369 213.650,289.021 215.360,289.213 215.800 C 293.034 224.556,293.991 245.819,291.157 259.000 C 289.996 264.400,288.028 271.249,287.165 272.895 C 286.964 273.277,286.800 273.767,286.800 273.984 C 286.800 274.409,285.655 277.004,283.088 282.400 C 278.694 291.634,271.446 298.800,266.498 298.800 C 266.092 298.800,265.541 299.019,265.273 299.287 C 264.424 300.136,249.704 300.252,247.104 299.430 C 244.703 298.671,242.263 297.542,242.067 297.100 C 241.993 296.935,241.706 296.800,241.429 296.800 C 240.727 296.800,237.133 293.286,235.845 291.340 C 233.860 288.340,233.166 285.771,232.916 280.490 L 232.683 275.580 229.114 279.383 C 220.760 288.284,205.734 294.593,195.563 293.471 C 186.947 292.520,182.749 291.563,177.720 289.404 C 175.291 288.361,170.376 285.701,170.000 285.226 C 169.890 285.087,168.886 284.312,167.769 283.504 C 162.256 279.512,153.200 266.813,153.200 263.072 C 153.200 262.791,153.045 262.389,152.855 262.180 C 152.280 261.546,151.150 256.964,150.344 252.000 C 149.815 248.735,150.117 236.097,150.789 233.400 C 151.751 229.545,152.464 226.992,152.831 226.100 C 156.228 217.823,158.308 214.528,163.342 209.444 C 172.497 200.199,188.404 194.131,200.200 195.384 C 208.440 196.259,209.896 196.450,210.988 196.795 C 211.654 197.005,213.190 197.466,214.400 197.817 C 215.610 198.169,216.960 198.606,217.400 198.788 C 217.840 198.970,218.920 199.417,219.800 199.781 C 230.776 204.328,240.421 214.854,244.191 226.400 C 244.586 227.610,245.051 228.960,245.225 229.400 C 246.736 233.235,246.922 235.957,247.162 257.800 L 247.400 279.400 248.569 281.510 C 250.279 284.596,251.746 285.362,255.980 285.377 C 261.890 285.399,264.160 283.315,268.593 273.800 C 270.916 268.815,270.990 268.640,271.811 266.200 C 272.182 265.100,272.625 263.840,272.797 263.400 C 277.463 251.439,277.377 230.593,272.613 219.000 C 272.342 218.340,271.878 217.170,271.583 216.400 C 271.009 214.904,267.611 208.291,266.361 206.238 C 265.946 205.557,265.479 204.730,265.322 204.400 C 265.166 204.070,263.724 201.683,262.119 199.096 C 260.514 196.509,259.200 194.296,259.200 194.180 C 259.200 194.063,258.861 193.480,258.446 192.884 C 257.452 191.455,251.200 181.231,251.200 181.034 C 251.200 180.950,249.445 178.022,247.300 174.528 C 245.155 171.034,243.089 167.640,242.708 166.987 C 239.136 160.860,228.938 144.171,228.702 144.067 C 228.536 143.993,228.400 143.766,228.400 143.562 C 228.400 143.358,227.230 141.299,225.800 138.985 C 224.370 136.672,223.200 134.666,223.200 134.527 C 223.200 134.389,222.750 133.686,222.200 132.964 C 221.650 132.243,221.200 131.550,221.200 131.424 C 221.200 131.297,219.850 129.037,218.200 126.400 C 216.550 123.763,215.200 121.513,215.200 121.400 C 215.200 121.287,213.850 119.037,212.200 116.400 C 210.550 113.763,209.200 111.425,209.200 111.203 C 209.200 110.981,209.049 110.800,208.864 110.800 C 208.680 110.800,208.303 110.305,208.028 109.700 C 207.752 109.095,206.098 106.260,204.352 103.400 C 202.605 100.540,201.016 97.930,200.820 97.600 C 200.623 97.270,199.414 95.241,198.131 93.091 L 195.800 89.182 194.947 90.238 C 194.478 90.819,193.712 92.038,193.244 92.947 C 192.776 93.856,191.867 95.500,191.225 96.600 C 190.582 97.700,189.665 99.320,189.187 100.200 C 186.582 104.995,185.394 107.102,184.788 108.000 C 184.418 108.550,183.668 109.810,183.123 110.800 C 180.821 114.979,179.376 117.553,177.544 120.737 C 176.475 122.595,175.600 124.269,175.600 124.457 C 175.600 124.646,175.465 124.802,175.300 124.805 C 175.135 124.807,174.648 125.572,174.218 126.505 C 173.788 127.437,173.139 128.650,172.775 129.200 C 172.412 129.750,171.666 131.010,171.118 132.000 C 167.650 138.262,164.261 144.258,163.996 144.600 C 163.825 144.820,163.335 145.630,162.908 146.400 C 162.480 147.170,161.536 148.871,160.809 150.179 C 160.082 151.488,158.613 154.079,157.544 155.937 C 156.475 157.795,155.600 159.365,155.600 159.426 C 155.600 159.487,154.677 161.126,153.549 163.068 C 150.838 167.735,150.366 168.562,147.200 174.200 C 145.717 176.840,144.144 179.630,143.703 180.400 C 143.262 181.170,142.564 182.430,142.151 183.200 C 141.738 183.970,141.310 184.690,141.200 184.800 C 141.090 184.910,140.804 185.360,140.563 185.800 C 138.677 189.258,137.335 191.622,136.537 192.892 C 136.022 193.713,135.600 194.495,135.600 194.630 C 135.600 194.766,135.263 195.354,134.851 195.938 C 134.439 196.522,133.569 197.990,132.917 199.200 C 131.356 202.097,129.675 205.068,128.618 206.800 C 127.442 208.726,125.078 213.783,124.223 216.200 C 123.834 217.300,123.372 218.560,123.198 219.000 C 123.023 219.440,122.586 220.880,122.227 222.200 C 121.868 223.520,121.400 225.153,121.187 225.828 C 120.974 226.504,120.800 227.585,120.800 228.231 C 120.800 228.877,120.615 230.034,120.390 230.803 C 120.018 232.071,119.835 246.002,120.159 248.400 C 120.898 253.869,120.855 253.638,122.251 259.600 C 122.637 261.250,123.077 262.780,123.230 263.000 C 123.383 263.220,123.639 264.030,123.800 264.800 C 123.961 265.570,124.214 266.380,124.363 266.600 C 124.511 266.820,124.873 267.720,125.166 268.600 C 132.267 289.924,159.336 313.367,180.171 316.238 C 181.067 316.361,182.160 316.610,182.600 316.790 C 185.824 318.111,202.407 318.662,208.600 317.654 C 215.419 316.544,223.575 314.348,227.460 312.575 C 230.772 311.064,235.688 312.433,237.606 315.400 C 240.902 320.500,238.980 326.055,233.177 328.203 C 232.200 328.564,231.130 328.990,230.800 329.149 C 230.470 329.308,229.120 329.769,227.800 330.175 C 226.480 330.580,225.040 331.052,224.600 331.223 C 223.875 331.506,220.865 332.259,216.600 333.225 C 206.848 335.435,188.544 335.261,177.600 332.856 C 173.174 331.883,166.404 329.891,165.105 329.180 C 164.723 328.971,164.233 328.800,164.016 328.800 C 162.829 328.800,152.068 323.361,147.226 320.313 C 130.676 309.897,115.747 291.827,109.623 274.800 C 109.346 274.030,108.973 273.040,108.794 272.600 C 108.614 272.160,108.158 270.810,107.779 269.600 C 107.401 268.390,106.946 267.040,106.769 266.600 C 106.458 265.828,105.961 263.776,105.171 260.000 C 102.741 248.392,102.564 231.471,104.785 223.200 C 104.992 222.430,105.463 220.450,105.832 218.800 C 106.200 217.150,106.659 215.629,106.851 215.420 C 107.043 215.211,107.200 214.735,107.200 214.362 C 107.200 212.229,111.846 202.402,117.394 192.800 C 120.804 186.899,121.234 186.143,123.191 182.621 C 123.918 181.312,125.387 178.721,126.456 176.863 C 127.525 175.005,128.400 173.331,128.400 173.143 C 128.400 172.954,128.559 172.800,128.753 172.800 C 128.948 172.800,129.208 172.485,129.331 172.100 C 129.455 171.715,130.126 170.410,130.822 169.200 C 131.518 167.990,132.632 166.010,133.297 164.800 C 133.962 163.590,134.638 162.420,134.799 162.200 C 135.101 161.790,136.514 159.286,137.849 156.800 C 138.262 156.030,138.690 155.310,138.800 155.200 C 138.910 155.090,139.196 154.640,139.437 154.200 C 139.952 153.256,142.245 149.112,143.200 147.400 C 143.568 146.740,144.469 145.120,145.201 143.800 C 145.934 142.480,147.332 140.050,148.308 138.400 C 149.285 136.750,150.634 134.410,151.307 133.200 C 153.193 129.810,153.959 128.446,155.800 125.200 C 157.522 122.164,157.799 121.678,160.744 116.524 C 162.721 113.063,163.460 111.744,165.188 108.600 C 165.913 107.280,166.659 106.005,166.847 105.766 C 167.035 105.527,167.881 104.087,168.727 102.566 C 169.573 101.045,170.626 99.170,171.067 98.400 C 171.508 97.630,172.463 95.920,173.188 94.600 C 173.913 93.280,174.644 92.020,174.813 91.800 C 174.982 91.580,175.886 89.960,176.822 88.200 C 177.759 86.440,178.947 84.373,179.463 83.607 C 179.978 82.841,180.400 81.986,180.400 81.707 C 180.400 81.428,180.559 81.200,180.753 81.200 C 180.948 81.200,181.210 80.885,181.337 80.500 C 181.560 79.823,182.234 78.590,184.454 74.800 C 185.606 72.833,187.076 70.257,187.763 68.999 C 190.124 64.675,195.178 62.828,198.935 64.918 M193.400 210.640 C 190.127 210.972,180.983 214.071,180.000 215.181 C 179.890 215.306,179.080 215.876,178.200 216.448 C 174.373 218.939,170.282 223.852,167.918 228.800 C 166.940 230.845,166.481 232.163,165.137 236.781 C 164.449 239.145,164.444 249.628,165.129 252.019 C 167.082 258.828,167.595 260.084,169.947 263.796 C 173.795 269.872,179.578 274.287,186.600 276.511 C 191.601 278.095,192.320 278.200,198.200 278.200 C 213.110 278.200,225.600 270.443,229.760 258.600 C 230.146 257.500,230.611 256.240,230.794 255.800 C 232.757 251.068,232.716 235.263,230.736 233.020 C 230.551 232.811,230.399 232.361,230.398 232.020 C 230.396 231.679,230.126 230.884,229.798 230.254 C 229.469 229.624,229.200 228.936,229.200 228.724 C 229.200 227.960,225.506 222.653,223.492 220.523 C 219.848 216.670,214.962 213.634,210.200 212.264 C 208.880 211.885,207.233 211.395,206.541 211.176 C 205.185 210.747,196.026 210.374,193.400 210.640 " stroke="none" fill="#241c23" fill-rule="evenodd"></path><path id="path2" d="M291.648 52.868 C 288.090 54.629,288.200 53.688,288.200 82.229 L 288.200 107.059 289.300 108.721 C 291.666 112.296,286.468 112.000,346.784 112.000 L 400.000 112.000 400.000 82.000 L 400.000 52.000 346.700 52.000 L 293.400 52.001 291.648 52.868 M376.198 65.416 C 392.881 69.762,391.941 95.879,374.997 98.830 C 362.885 100.939,354.197 93.991,354.202 82.200 C 354.204 76.738,354.562 75.343,356.873 71.800 C 358.218 69.737,362.008 66.400,363.005 66.400 C 363.156 66.400,363.846 66.140,364.540 65.823 C 367.033 64.682,372.630 64.487,376.198 65.416 M317.000 65.947 C 328.600 71.235,324.835 87.176,311.800 87.959 L 307.800 88.200 307.584 92.400 C 307.294 98.039,306.855 98.800,303.888 98.800 C 301.228 98.800,301.276 99.095,301.131 82.065 L 301.000 66.729 301.944 65.965 C 303.320 64.851,314.567 64.838,317.000 65.947 M343.742 66.229 C 350.516 69.615,352.011 78.319,346.763 83.819 C 345.278 85.376,345.177 84.950,348.200 89.906 C 351.802 95.811,351.728 98.800,347.980 98.800 C 346.069 98.800,345.596 98.289,341.683 92.000 L 338.572 87.000 336.825 86.874 C 334.519 86.708,334.413 86.945,334.406 92.318 C 334.398 98.379,332.338 100.554,329.054 97.971 L 328.000 97.142 328.000 82.097 C 328.000 63.437,327.196 65.200,335.712 65.200 C 341.327 65.200,341.807 65.262,343.742 66.229 M366.671 71.770 C 356.253 76.875,359.726 93.185,371.235 93.202 C 380.775 93.216,385.422 79.706,378.019 73.478 C 374.731 70.711,370.219 70.032,366.671 71.770 M308.288 71.479 C 307.646 71.645,307.587 72.145,307.688 76.532 L 307.800 81.400 310.501 81.518 C 314.938 81.713,317.200 80.054,317.200 76.606 C 317.200 73.673,315.118 71.600,312.172 71.600 C 311.013 71.600,309.826 71.531,309.533 71.448 C 309.240 71.364,308.680 71.378,308.288 71.479 M335.300 71.612 C 334.376 71.984,333.968 76.948,334.652 79.500 C 335.101 81.175,340.569 80.673,342.317 78.797 C 345.832 75.024,340.470 69.534,335.300 71.612 " stroke="none" fill="#eb6040" fill-rule="evenodd"></path><path id="path3" d="M194.100 64.687 C 194.705 64.778,195.695 64.778,196.300 64.687 C 196.905 64.595,196.410 64.520,195.200 64.520 C 193.990 64.520,193.495 64.595,194.100 64.687 M189.293 67.100 C 188.257 68.596,187.921 69.200,188.123 69.200 C 188.217 69.200,188.770 68.480,189.353 67.600 C 190.536 65.812,190.484 65.379,189.293 67.100 M202.394 69.100 C 203.095 70.255,203.758 71.200,203.867 71.200 C 204.137 71.200,202.418 68.346,201.698 67.600 C 201.380 67.270,201.693 67.945,202.394 69.100 M319.200 67.325 C 319.200 67.394,319.785 67.979,320.500 68.625 L 321.800 69.800 320.625 68.500 C 319.530 67.288,319.200 67.016,319.200 67.325 M300.928 72.400 C 300.928 73.830,301.001 74.415,301.089 73.700 C 301.178 72.985,301.178 71.815,301.089 71.100 C 301.001 70.385,300.928 70.970,300.928 72.400 M307.288 76.500 L 307.400 81.800 310.400 81.839 L 313.400 81.878 310.600 81.639 L 307.800 81.400 307.688 76.532 C 307.587 72.145,307.646 71.645,308.288 71.478 C 308.832 71.337,308.785 71.282,308.088 71.246 C 307.178 71.200,307.177 71.206,307.288 76.500 M310.707 71.490 C 311.426 71.579,312.506 71.577,313.107 71.486 C 313.708 71.395,313.120 71.322,311.800 71.324 C 310.480 71.326,309.988 71.401,310.707 71.490 M341.600 72.193 C 341.600 72.325,341.982 72.831,342.449 73.317 L 343.299 74.200 342.847 73.322 C 342.400 72.454,341.600 71.729,341.600 72.193 M377.600 72.925 C 377.600 72.994,378.185 73.579,378.900 74.225 L 380.200 75.400 379.025 74.100 C 377.930 72.888,377.600 72.616,377.600 72.925 M323.320 75.200 C 323.320 76.410,323.395 76.905,323.487 76.300 C 323.578 75.695,323.578 74.705,323.487 74.100 C 323.395 73.495,323.320 73.990,323.320 75.200 M205.549 74.200 C 205.765 74.640,206.234 75.360,206.593 75.800 L 207.244 76.600 206.851 75.800 C 206.635 75.360,206.166 74.640,205.807 74.200 L 205.156 73.400 205.549 74.200 M183.751 76.500 C 183.383 77.215,182.819 78.250,182.498 78.800 C 181.939 79.759,181.943 79.767,182.589 79.000 C 183.378 78.063,184.907 75.200,184.618 75.200 C 184.510 75.200,184.119 75.785,183.751 76.500 M207.202 77.100 C 207.203 77.265,207.657 77.940,208.210 78.600 L 209.216 79.800 208.368 78.300 C 207.545 76.842,207.198 76.485,207.202 77.100 M334.527 79.800 C 334.598 80.506,334.915 80.604,337.204 80.634 L 339.800 80.667 337.326 80.515 C 335.426 80.398,334.804 80.205,334.649 79.682 C 334.500 79.181,334.467 79.212,334.527 79.800 M180.846 81.604 C 180.352 82.482,180.033 83.200,180.135 83.200 C 180.406 83.200,182.059 80.326,181.887 80.154 C 181.808 80.074,181.339 80.727,180.846 81.604 M381.720 82.000 C 381.720 83.210,381.795 83.705,381.887 83.100 C 381.978 82.495,381.978 81.505,381.887 80.900 C 381.795 80.295,381.720 80.790,381.720 82.000 M360.101 81.800 C 360.105 82.680,360.187 82.993,360.283 82.495 C 360.379 81.998,360.375 81.278,360.275 80.895 C 360.175 80.513,360.096 80.920,360.101 81.800 M388.093 82.000 C 388.093 82.770,388.175 83.085,388.276 82.700 C 388.376 82.315,388.376 81.685,388.276 81.300 C 388.175 80.915,388.093 81.230,388.093 82.000 M210.349 82.200 C 210.565 82.640,211.034 83.360,211.393 83.800 L 212.044 84.600 211.651 83.800 C 211.435 83.360,210.966 82.640,210.607 82.200 L 209.956 81.400 210.349 82.200 M346.478 83.719 C 345.158 85.081,344.911 85.774,345.595 86.197 C 345.826 86.339,345.887 86.171,345.743 85.794 C 345.582 85.377,345.967 84.660,346.826 83.774 C 347.558 83.018,348.067 82.400,347.957 82.400 C 347.847 82.400,347.182 82.994,346.478 83.719 M178.800 85.200 C 178.351 86.080,178.074 86.800,178.184 86.800 C 178.294 86.800,178.751 86.080,179.200 85.200 C 179.649 84.320,179.926 83.600,179.816 83.600 C 179.706 83.600,179.249 84.320,178.800 85.200 M380.148 87.700 C 379.580 88.799,379.572 88.921,380.095 88.487 C 380.656 88.021,381.338 86.400,380.973 86.400 C 380.889 86.400,380.518 86.985,380.148 87.700 M307.267 92.300 C 307.336 96.668,307.493 96.147,307.691 90.899 C 307.751 89.304,307.665 87.999,307.500 87.999 C 307.335 88.000,307.230 89.935,307.267 92.300 M340.349 89.800 C 340.565 90.240,341.034 90.960,341.393 91.400 L 342.044 92.200 341.651 91.400 C 341.435 90.960,340.966 90.240,340.607 89.800 L 339.956 89.000 340.349 89.800 M215.203 90.090 C 215.201 90.250,215.559 90.970,215.999 91.690 C 216.438 92.411,216.796 92.820,216.796 92.600 C 216.795 92.380,216.437 91.660,216.000 91.000 C 215.563 90.340,215.204 89.931,215.203 90.090 M198.349 93.000 C 198.565 93.440,199.034 94.160,199.393 94.600 L 200.044 95.400 199.651 94.600 C 199.435 94.160,198.966 93.440,198.607 93.000 L 197.956 92.200 198.349 93.000 M173.600 94.400 C 173.151 95.280,172.874 96.000,172.984 96.000 C 173.094 96.000,173.551 95.280,174.000 94.400 C 174.449 93.520,174.726 92.800,174.616 92.800 C 174.506 92.800,174.049 93.520,173.600 94.400 M358.600 94.400 C 359.459 95.280,360.252 96.000,360.362 96.000 C 360.472 96.000,359.859 95.280,359.000 94.400 C 358.141 93.520,357.348 92.800,357.238 92.800 C 357.128 92.800,357.741 93.520,358.600 94.400 M189.800 98.000 C 189.459 98.660,189.269 99.200,189.379 99.200 C 189.489 99.200,189.859 98.660,190.200 98.000 C 190.541 97.340,190.731 96.800,190.621 96.800 C 190.511 96.800,190.141 97.340,189.800 98.000 M163.800 111.600 C 163.459 112.260,163.269 112.800,163.379 112.800 C 163.489 112.800,163.859 112.260,164.200 111.600 C 164.541 110.940,164.731 110.400,164.621 110.400 C 164.511 110.400,164.141 110.940,163.800 111.600 M181.486 112.635 C 180.889 113.624,180.403 114.560,180.408 114.716 C 180.412 114.872,180.963 114.127,181.634 113.059 C 182.304 111.992,182.789 111.056,182.712 110.978 C 182.634 110.901,182.083 111.647,181.486 112.635 M229.209 113.500 C 229.214 113.665,229.585 114.250,230.033 114.800 L 230.848 115.800 230.214 114.500 C 229.611 113.265,229.189 112.845,229.209 113.500 M179.552 116.100 C 179.290 116.595,178.815 117.450,178.496 118.000 C 177.939 118.959,177.943 118.967,178.588 118.200 C 179.386 117.252,180.505 115.200,180.224 115.200 C 180.116 115.200,179.814 115.605,179.552 116.100 M232.349 118.600 C 232.565 119.040,233.034 119.760,233.393 120.200 L 234.044 121.000 233.651 120.200 C 233.435 119.760,232.966 119.040,232.607 118.600 L 231.956 117.800 232.349 118.600 M215.041 120.600 C 215.641 121.700,216.302 122.780,216.510 123.000 C 217.103 123.627,215.341 120.295,214.606 119.400 C 214.245 118.960,214.441 119.500,215.041 120.600 M235.549 123.800 C 235.765 124.240,236.234 124.960,236.593 125.400 L 237.244 126.200 236.851 125.400 C 236.635 124.960,236.166 124.240,235.807 123.800 L 235.156 123.000 235.549 123.800 M217.149 124.200 C 217.365 124.640,217.834 125.360,218.193 125.800 L 218.844 126.600 218.451 125.800 C 218.235 125.360,217.766 124.640,217.407 124.200 L 216.756 123.400 217.149 124.200 M238.349 128.600 C 238.565 129.040,239.034 129.760,239.393 130.200 L 240.044 131.000 239.651 130.200 C 239.435 129.760,238.966 129.040,238.607 128.600 L 237.956 127.800 238.349 128.600 M221.049 130.600 C 221.642 131.700,222.393 132.870,222.718 133.200 C 223.044 133.530,222.880 133.065,222.355 132.166 C 220.836 129.566,219.864 128.400,221.049 130.600 M223.215 134.200 C 223.217 134.420,223.586 135.050,224.036 135.600 C 224.579 136.264,224.715 136.331,224.440 135.800 C 223.766 134.495,223.212 133.772,223.215 134.200 M225.149 137.400 C 225.365 137.840,225.834 138.560,226.193 139.000 L 226.844 139.800 226.451 139.000 C 226.235 138.560,225.766 137.840,225.407 137.400 L 224.756 136.600 225.149 137.400 M148.600 138.400 C 148.259 139.060,148.069 139.600,148.179 139.600 C 148.289 139.600,148.659 139.060,149.000 138.400 C 149.341 137.740,149.531 137.200,149.421 137.200 C 149.311 137.200,148.941 137.740,148.600 138.400 M246.349 141.800 C 246.565 142.240,247.034 142.960,247.393 143.400 L 248.044 144.200 247.651 143.400 C 247.435 142.960,246.966 142.240,246.607 141.800 L 245.956 141.000 246.349 141.800 M145.620 143.561 C 145.160 144.463,144.860 145.200,144.952 145.200 C 145.253 145.200,146.838 142.305,146.644 142.111 C 146.541 142.007,146.080 142.660,145.620 143.561 M228.349 142.600 C 228.565 143.040,229.034 143.760,229.393 144.200 L 230.044 145.000 229.651 144.200 C 229.435 143.760,228.966 143.040,228.607 142.600 L 227.956 141.800 228.349 142.600 M231.149 147.400 C 231.365 147.840,231.834 148.560,232.193 149.000 L 232.844 149.800 232.451 149.000 C 232.235 148.560,231.766 147.840,231.407 147.400 L 230.756 146.600 231.149 147.400 M140.825 152.100 C 140.037 153.667,140.032 153.722,140.764 152.800 C 141.471 151.909,142.124 150.400,141.803 150.400 C 141.736 150.400,141.296 151.165,140.825 152.100 M257.560 160.200 C 258.234 161.505,258.788 162.228,258.785 161.800 C 258.783 161.580,258.414 160.950,257.964 160.400 C 257.421 159.736,257.285 159.669,257.560 160.200 M153.000 162.800 C 152.659 163.460,152.469 164.000,152.579 164.000 C 152.689 164.000,153.059 163.460,153.400 162.800 C 153.741 162.140,153.931 161.600,153.821 161.600 C 153.711 161.600,153.341 162.140,153.000 162.800 M133.600 164.800 C 133.151 165.680,132.874 166.400,132.984 166.400 C 133.094 166.400,133.551 165.680,134.000 164.800 C 134.449 163.920,134.726 163.200,134.616 163.200 C 134.506 163.200,134.049 163.920,133.600 164.800 M260.349 165.000 C 260.565 165.440,261.034 166.160,261.393 166.600 L 262.044 167.400 261.651 166.600 C 261.435 166.160,260.966 165.440,260.607 165.000 L 259.956 164.200 260.349 165.000 M130.882 169.627 C 130.384 170.492,130.057 171.200,130.155 171.200 C 130.431 171.200,132.112 168.379,131.939 168.206 C 131.855 168.122,131.380 168.762,130.882 169.627 M263.549 170.200 C 263.765 170.640,264.234 171.360,264.593 171.800 L 265.244 172.600 264.851 171.800 C 264.635 171.360,264.166 170.640,263.807 170.200 L 263.156 169.400 263.549 170.200 M128.800 173.200 C 128.351 174.080,128.074 174.800,128.184 174.800 C 128.294 174.800,128.751 174.080,129.200 173.200 C 129.649 172.320,129.926 171.600,129.816 171.600 C 129.706 171.600,129.249 172.320,128.800 173.200 M265.787 173.975 C 266.121 174.621,266.576 175.261,266.798 175.399 C 267.020 175.536,266.823 175.007,266.361 174.224 C 265.348 172.507,264.935 172.328,265.787 173.975 M248.349 175.800 C 248.565 176.240,249.034 176.960,249.393 177.400 L 250.044 178.200 249.651 177.400 C 249.435 176.960,248.966 176.240,248.607 175.800 L 247.956 175.000 248.349 175.800 M123.600 182.400 C 123.151 183.280,122.874 184.000,122.984 184.000 C 123.094 184.000,123.551 183.280,124.000 182.400 C 124.449 181.520,124.726 180.800,124.616 180.800 C 124.506 180.800,124.049 181.520,123.600 182.400 M121.800 185.600 C 121.459 186.260,121.269 186.800,121.379 186.800 C 121.489 186.800,121.859 186.260,122.200 185.600 C 122.541 184.940,122.731 184.400,122.621 184.400 C 122.511 184.400,122.141 184.940,121.800 185.600 M273.200 186.114 C 273.200 186.485,275.622 190.400,275.851 190.400 C 276.051 190.400,274.074 186.834,273.534 186.220 C 273.350 186.011,273.200 185.963,273.200 186.114 M137.814 189.435 C 137.441 190.004,137.227 190.561,137.339 190.672 C 137.450 190.783,137.829 190.318,138.181 189.637 C 138.959 188.133,138.744 188.015,137.814 189.435 M256.349 189.000 C 256.565 189.440,257.034 190.160,257.393 190.600 L 258.044 191.400 257.651 190.600 C 257.435 190.160,256.966 189.440,256.607 189.000 L 255.956 188.200 256.349 189.000 M134.800 194.800 C 134.351 195.680,134.074 196.400,134.184 196.400 C 134.294 196.400,134.751 195.680,135.200 194.800 C 135.649 193.920,135.926 193.200,135.816 193.200 C 135.706 193.200,135.249 193.920,134.800 194.800 M197.100 195.889 C 197.815 195.978,198.985 195.978,199.700 195.889 C 200.415 195.801,199.830 195.728,198.400 195.728 C 196.970 195.728,196.385 195.801,197.100 195.889 M189.800 196.400 C 188.722 196.674,188.702 196.706,189.600 196.713 C 190.150 196.717,191.050 196.576,191.600 196.400 C 192.944 195.969,191.492 195.969,189.800 196.400 M205.400 196.400 C 206.060 196.568,207.050 196.705,207.600 196.705 C 208.492 196.705,208.470 196.672,207.400 196.400 C 206.740 196.232,205.750 196.095,205.200 196.095 C 204.308 196.095,204.330 196.128,205.400 196.400 M133.000 198.000 C 132.659 198.660,132.469 199.200,132.579 199.200 C 132.689 199.200,133.059 198.660,133.400 198.000 C 133.741 197.340,133.931 196.800,133.821 196.800 C 133.711 196.800,133.341 197.340,133.000 198.000 M185.600 197.200 C 184.796 197.457,184.757 197.523,185.400 197.532 C 185.840 197.538,186.560 197.389,187.000 197.200 C 188.019 196.762,186.968 196.762,185.600 197.200 M210.833 197.344 C 210.925 197.423,211.540 197.608,212.200 197.756 C 213.076 197.952,213.238 197.915,212.800 197.618 C 212.260 197.253,210.432 196.998,210.833 197.344 M113.600 200.000 C 113.151 200.880,112.874 201.600,112.984 201.600 C 113.094 201.600,113.551 200.880,114.000 200.000 C 114.449 199.120,114.726 198.400,114.616 198.400 C 114.506 198.400,114.049 199.120,113.600 200.000 M216.800 199.031 C 216.800 199.301,218.878 200.056,219.076 199.857 C 219.167 199.767,218.692 199.501,218.020 199.267 C 217.349 199.033,216.800 198.927,216.800 199.031 M221.600 200.952 C 221.600 201.253,224.495 202.838,224.689 202.644 C 224.793 202.541,224.140 202.080,223.239 201.620 C 222.337 201.160,221.600 200.860,221.600 200.952 M264.839 203.100 C 266.192 205.344,266.800 206.210,266.800 205.895 C 266.800 205.502,264.377 201.600,264.133 201.600 C 264.024 201.600,264.342 202.275,264.839 203.100 M225.200 202.966 C 225.200 203.074,226.055 203.736,227.100 204.439 C 228.145 205.141,229.628 206.275,230.396 206.958 C 231.744 208.157,231.758 208.161,230.796 207.055 C 229.837 205.954,225.200 202.565,225.200 202.966 M162.797 210.300 C 160.996 212.225,159.341 214.160,159.119 214.600 C 158.898 215.040,159.315 214.680,160.046 213.800 C 160.776 212.920,162.535 210.985,163.953 209.500 C 165.371 208.015,166.428 206.800,166.302 206.800 C 166.175 206.800,164.598 208.375,162.797 210.300 M232.800 209.200 C 233.240 209.640,233.718 210.000,233.862 210.000 C 234.006 210.000,233.798 209.640,233.400 209.200 C 233.002 208.760,232.524 208.400,232.338 208.400 C 232.152 208.400,232.360 208.760,232.800 209.200 M286.028 209.000 C 286.028 209.220,286.286 209.850,286.600 210.400 C 286.914 210.950,287.172 211.220,287.172 211.000 C 287.172 210.780,286.914 210.150,286.600 209.600 C 286.286 209.050,286.028 208.780,286.028 209.000 M203.000 210.400 C 203.660 210.568,204.740 210.706,205.400 210.707 C 206.409 210.708,206.345 210.655,205.000 210.377 C 202.974 209.958,201.337 209.977,203.000 210.400 M189.800 210.819 C 189.242 211.071,189.485 211.107,190.600 210.938 C 191.480 210.804,192.275 210.628,192.367 210.547 C 192.710 210.244,190.568 210.471,189.800 210.819 M209.000 211.600 C 209.440 211.789,210.070 211.944,210.400 211.944 C 210.778 211.944,210.704 211.817,210.200 211.600 C 209.760 211.411,209.130 211.256,208.800 211.256 C 208.422 211.256,208.496 211.383,209.000 211.600 M236.400 213.200 C 237.097 214.080,237.757 214.800,237.867 214.800 C 237.977 214.800,237.497 214.080,236.800 213.200 C 236.103 212.320,235.443 211.600,235.333 211.600 C 235.223 211.600,235.703 212.320,236.400 213.200 M184.200 212.614 C 183.200 213.096,183.166 213.151,184.000 212.948 C 185.133 212.671,186.407 212.021,185.800 212.030 C 185.580 212.033,184.860 212.296,184.200 212.614 M211.200 212.134 C 211.200 212.237,211.781 212.524,212.491 212.772 C 213.201 213.019,213.606 213.057,213.391 212.856 C 212.935 212.429,211.200 211.858,211.200 212.134 M214.033 213.330 C 214.645 213.806,218.800 215.969,218.800 215.812 C 218.800 215.550,214.699 213.209,214.233 213.204 C 214.032 213.202,213.942 213.258,214.033 213.330 M179.700 214.796 C 178.985 215.232,178.400 215.675,178.400 215.781 C 178.400 215.886,179.030 215.601,179.800 215.147 C 180.570 214.693,181.200 214.249,181.200 214.160 C 181.200 213.905,181.074 213.958,179.700 214.796 M288.229 214.800 C 288.376 215.350,288.664 216.070,288.867 216.400 C 289.125 216.817,289.157 216.695,288.971 216.000 C 288.824 215.450,288.536 214.730,288.333 214.400 C 288.075 213.983,288.043 214.105,288.229 214.800 M238.349 215.800 C 238.565 216.240,239.034 216.960,239.393 217.400 L 240.044 218.200 239.651 217.400 C 239.435 216.960,238.966 216.240,238.607 215.800 L 237.956 215.000 238.349 215.800 M222.034 218.704 C 223.483 220.049,225.358 222.151,226.201 223.375 C 227.874 225.805,228.467 226.325,227.323 224.359 C 226.344 222.677,222.235 218.216,220.670 217.134 C 219.971 216.652,220.585 217.358,222.034 218.704 M106.446 217.267 C 106.421 217.634,106.296 218.264,106.170 218.667 C 105.952 219.362,105.963 219.363,106.397 218.687 C 106.648 218.296,106.773 217.666,106.673 217.287 C 106.511 216.668,106.488 216.666,106.446 217.267 M173.600 219.800 C 171.961 221.450,170.710 222.800,170.820 222.800 C 170.930 222.800,172.361 221.450,174.000 219.800 C 175.639 218.150,176.890 216.800,176.780 216.800 C 176.670 216.800,175.239 218.150,173.600 219.800 M273.267 220.020 C 273.501 220.692,273.767 221.167,273.857 221.076 C 274.056 220.878,273.301 218.800,273.031 218.800 C 272.927 218.800,273.033 219.349,273.267 220.020 M290.262 221.400 C 290.396 222.280,290.572 223.075,290.653 223.167 C 290.956 223.510,290.729 221.368,290.381 220.600 C 290.129 220.042,290.093 220.285,290.262 221.400 M105.249 222.200 C 105.216 222.640,105.096 223.450,104.983 224.000 L 104.777 225.000 105.206 224.019 C 105.442 223.479,105.561 222.669,105.472 222.219 C 105.313 221.421,105.307 221.421,105.249 222.200 M274.012 222.400 C 274.012 222.730,274.187 223.270,274.400 223.600 C 274.745 224.133,274.788 224.133,274.788 223.600 C 274.788 223.270,274.613 222.730,274.400 222.400 C 274.055 221.867,274.012 221.867,274.012 222.400 M153.244 225.644 C 152.998 226.351,152.866 227.000,152.952 227.085 C 153.038 227.171,153.309 226.662,153.556 225.956 C 153.802 225.249,153.934 224.600,153.848 224.515 C 153.762 224.429,153.491 224.938,153.244 225.644 M104.255 227.455 C 104.113 228.486,104.074 229.408,104.169 229.502 C 104.263 229.596,104.465 228.839,104.618 227.818 C 104.771 226.798,104.810 225.876,104.704 225.771 C 104.598 225.665,104.396 226.423,104.255 227.455 M291.280 226.400 C 291.280 226.950,291.424 227.850,291.600 228.400 L 291.920 229.400 291.920 228.400 C 291.920 227.850,291.776 226.950,291.600 226.400 L 291.280 225.400 291.280 226.400 M275.228 226.833 C 275.244 227.365,275.419 228.160,275.619 228.600 C 275.871 229.158,275.907 228.915,275.738 227.800 C 275.455 225.943,275.187 225.436,275.228 226.833 M244.248 228.200 C 244.391 228.860,244.666 229.670,244.859 230.000 C 245.084 230.384,245.118 230.168,244.952 229.400 C 244.809 228.740,244.534 227.930,244.341 227.600 C 244.116 227.216,244.082 227.432,244.248 228.200 M166.379 230.655 C 166.158 231.236,166.052 231.785,166.143 231.876 C 166.233 231.967,166.499 231.492,166.733 230.820 C 167.253 229.328,166.939 229.182,166.379 230.655 M245.256 231.600 C 245.256 231.930,245.411 232.560,245.600 233.000 C 245.817 233.504,245.944 233.578,245.944 233.200 C 245.944 232.870,245.789 232.240,245.600 231.800 C 245.383 231.296,245.256 231.222,245.256 231.600 M276.299 233.800 C 276.416 235.340,276.577 236.675,276.656 236.767 C 276.934 237.088,276.717 232.989,276.403 232.000 C 276.219 231.419,276.175 232.173,276.299 233.800 M292.000 232.376 C 292.000 233.023,292.142 233.641,292.316 233.748 C 292.490 233.856,292.561 233.327,292.473 232.572 C 292.276 230.891,292.000 230.777,292.000 232.376 M119.457 233.500 C 119.142 235.402,119.211 246.612,119.547 248.180 C 119.686 248.829,119.800 245.454,119.800 240.680 C 119.800 235.906,119.779 232.000,119.752 232.000 C 119.726 232.000,119.593 232.675,119.457 233.500 M231.048 233.000 C 231.191 233.660,231.466 234.470,231.659 234.800 C 231.884 235.184,231.918 234.968,231.752 234.200 C 231.609 233.540,231.334 232.730,231.141 232.400 C 230.916 232.016,230.882 232.232,231.048 233.000 M103.415 234.615 C 103.261 235.854,103.217 236.950,103.319 237.052 C 103.420 237.154,103.630 236.223,103.785 234.985 C 103.939 233.746,103.983 232.650,103.881 232.548 C 103.780 232.446,103.570 233.377,103.415 234.615 M292.485 240.000 C 292.434 243.190,292.311 246.790,292.210 248.000 L 292.026 250.200 292.423 248.007 C 292.642 246.800,292.766 243.200,292.699 240.007 L 292.577 234.200 292.485 240.000 M246.303 252.472 C 246.360 262.003,246.458 271.510,246.520 273.600 C 246.582 275.690,246.652 268.310,246.676 257.200 C 246.701 246.090,246.603 236.583,246.460 236.072 C 246.317 235.562,246.247 242.942,246.303 252.472 M232.273 238.000 C 232.404 238.990,232.576 239.875,232.656 239.967 C 232.957 240.314,232.728 237.764,232.390 237.000 C 232.153 236.466,232.114 236.798,232.273 238.000 M150.186 240.644 C 150.028 242.758,150.056 246.133,150.249 248.144 C 150.568 251.465,150.600 251.112,150.600 244.300 C 150.600 235.663,150.576 235.450,150.186 240.644 M103.346 241.800 C 103.347 244.000,103.414 244.849,103.495 243.687 C 103.576 242.524,103.576 240.724,103.493 239.687 C 103.411 238.649,103.345 239.600,103.346 241.800 M164.093 240.400 C 164.093 241.170,164.175 241.485,164.276 241.100 C 164.376 240.715,164.376 240.085,164.276 239.700 C 164.175 239.315,164.093 239.630,164.093 240.400 M232.924 245.400 C 232.926 246.720,233.001 247.212,233.090 246.493 C 233.179 245.774,233.177 244.694,233.086 244.093 C 232.995 243.492,232.922 244.080,232.924 245.400 M276.468 245.200 C 276.426 246.190,276.306 247.720,276.202 248.600 L 276.012 250.200 276.422 248.600 C 276.648 247.720,276.768 246.190,276.688 245.200 L 276.544 243.400 276.468 245.200 M103.701 247.400 C 103.705 248.280,103.787 248.593,103.883 248.095 C 103.979 247.598,103.975 246.878,103.875 246.495 C 103.775 246.113,103.696 246.520,103.701 247.400 M164.069 248.000 C 164.056 248.550,164.195 249.720,164.377 250.600 C 164.589 251.626,164.716 251.841,164.731 251.200 C 164.744 250.650,164.605 249.480,164.423 248.600 C 164.211 247.574,164.084 247.359,164.069 248.000 M232.449 249.800 C 232.416 250.240,232.296 251.050,232.183 251.600 L 231.977 252.600 232.406 251.619 C 232.642 251.079,232.761 250.269,232.672 249.819 C 232.513 249.021,232.507 249.021,232.449 249.800 M120.272 253.000 C 120.399 254.100,120.569 255.075,120.651 255.167 C 120.932 255.482,120.720 252.999,120.380 252.000 C 120.151 251.326,120.116 251.651,120.272 253.000 M104.272 253.400 C 104.399 254.500,104.569 255.475,104.651 255.567 C 104.932 255.882,104.720 253.399,104.380 252.400 C 104.151 251.726,104.116 252.051,104.272 253.400 M275.431 253.500 C 274.815 257.075,274.782 257.432,275.143 256.600 C 275.552 255.655,276.129 252.000,275.869 252.000 C 275.770 252.000,275.573 252.675,275.431 253.500 M291.418 253.818 C 291.265 254.839,291.222 255.755,291.322 255.855 C 291.422 255.955,291.629 255.202,291.782 254.182 C 291.935 253.161,291.978 252.245,291.878 252.145 C 291.778 252.045,291.571 252.798,291.418 253.818 M231.240 255.040 C 231.010 255.873,230.894 256.627,230.982 256.715 C 231.070 256.803,231.330 256.193,231.560 255.360 C 231.790 254.527,231.906 253.773,231.818 253.685 C 231.730 253.597,231.470 254.207,231.240 255.040 M151.228 255.633 C 151.244 256.165,151.419 256.960,151.619 257.400 C 151.871 257.958,151.907 257.715,151.738 256.600 C 151.455 254.743,151.187 254.236,151.228 255.633 M166.218 257.700 C 166.368 258.195,166.655 258.776,166.856 258.991 C 167.057 259.206,167.019 258.801,166.772 258.091 C 166.265 256.638,165.797 256.308,166.218 257.700 M290.638 258.371 C 289.983 261.752,289.925 262.183,290.150 261.969 C 290.465 261.673,291.256 257.523,291.040 257.307 C 290.950 257.217,290.769 257.696,290.638 258.371 M121.256 258.000 C 121.256 258.330,121.411 258.960,121.600 259.400 C 121.817 259.904,121.944 259.978,121.944 259.600 C 121.944 259.270,121.789 258.640,121.600 258.200 C 121.383 257.696,121.256 257.622,121.256 258.000 M274.229 259.029 C 274.081 259.615,274.038 260.172,274.132 260.266 C 274.227 260.360,274.424 259.958,274.571 259.371 C 274.719 258.785,274.762 258.228,274.668 258.134 C 274.573 258.040,274.376 258.442,274.229 259.029 M273.240 262.640 C 273.010 263.473,272.894 264.227,272.982 264.315 C 273.070 264.403,273.330 263.793,273.560 262.960 C 273.790 262.127,273.906 261.373,273.818 261.285 C 273.730 261.197,273.470 261.807,273.240 262.640 M153.267 262.820 C 153.501 263.492,153.767 263.967,153.857 263.876 C 154.056 263.678,153.301 261.600,153.031 261.600 C 152.927 261.600,153.033 262.149,153.267 262.820 M168.439 262.500 C 169.386 264.323,172.366 268.240,173.841 269.600 C 174.921 270.595,174.763 270.330,173.294 268.683 C 172.158 267.409,170.566 265.294,169.757 263.983 C 168.300 261.622,167.539 260.766,168.439 262.500 M106.056 262.800 C 106.056 263.130,106.211 263.760,106.400 264.200 C 106.617 264.704,106.744 264.778,106.744 264.400 C 106.744 264.070,106.589 263.440,106.400 263.000 C 106.183 262.496,106.056 262.422,106.056 262.800 M289.400 263.600 C 289.250 264.073,289.217 264.550,289.327 264.660 C 289.437 264.770,289.650 264.473,289.800 264.000 C 289.950 263.527,289.983 263.050,289.873 262.940 C 289.763 262.830,289.550 263.127,289.400 263.600 M226.423 265.100 C 225.691 266.145,225.431 266.697,225.846 266.327 C 226.571 265.680,228.199 263.200,227.900 263.200 C 227.820 263.200,227.155 264.055,226.423 265.100 M107.048 266.600 C 107.191 267.260,107.466 268.070,107.659 268.400 C 107.884 268.784,107.918 268.568,107.752 267.800 C 107.609 267.140,107.334 266.330,107.141 266.000 C 106.916 265.616,106.882 265.832,107.048 266.600 M124.219 267.801 C 124.375 268.460,124.657 269.168,124.845 269.373 C 125.032 269.578,125.015 269.149,124.805 268.419 C 124.318 266.718,123.844 266.219,124.219 267.801 M223.200 269.000 C 222.228 269.990,221.523 270.800,221.633 270.800 C 221.743 270.800,222.628 269.990,223.600 269.000 C 224.572 268.010,225.277 267.200,225.167 267.200 C 225.057 267.200,224.172 268.010,223.200 269.000 M271.267 268.380 C 271.033 269.051,270.927 269.600,271.031 269.600 C 271.301 269.600,272.056 267.522,271.857 267.324 C 271.767 267.233,271.501 267.708,271.267 268.380 M219.047 272.398 C 216.955 273.981,216.733 274.278,218.327 273.362 C 219.492 272.693,221.204 271.181,220.762 271.211 C 220.673 271.217,219.901 271.751,219.047 272.398 M286.444 273.244 C 286.198 273.951,286.066 274.600,286.152 274.685 C 286.238 274.771,286.509 274.262,286.756 273.556 C 287.002 272.849,287.134 272.200,287.048 272.115 C 286.962 272.029,286.691 272.538,286.444 273.244 M177.600 272.820 C 178.987 273.761,179.778 274.035,178.800 273.236 C 178.250 272.786,177.620 272.417,177.400 272.415 C 177.180 272.413,177.270 272.596,177.600 272.820 M232.370 274.650 C 231.863 275.272,231.878 275.321,232.500 275.087 C 233.125 274.853,233.209 275.156,233.279 277.913 L 233.359 281.000 233.497 278.096 C 233.658 274.719,233.272 273.541,232.370 274.650 M161.112 276.669 C 162.835 278.871,168.441 284.092,168.751 283.783 C 168.884 283.649,168.635 283.354,168.197 283.127 C 167.759 282.900,165.691 280.979,163.603 278.857 C 161.515 276.736,160.394 275.751,161.112 276.669 M188.000 277.600 C 189.368 278.038,190.419 278.038,189.400 277.600 C 188.960 277.411,188.240 277.262,187.800 277.268 C 187.157 277.277,187.196 277.343,188.000 277.600 M191.600 278.380 C 192.599 278.720,195.082 278.932,194.767 278.651 C 194.675 278.569,193.700 278.399,192.600 278.272 C 191.251 278.116,190.926 278.151,191.600 278.380 M203.000 278.400 L 201.400 278.686 202.800 278.715 C 203.570 278.731,204.560 278.589,205.000 278.400 C 205.943 277.995,205.262 277.995,203.000 278.400 M264.663 281.508 C 264.089 282.338,263.062 283.346,262.381 283.747 C 261.701 284.149,261.239 284.572,261.354 284.687 C 261.703 285.036,264.551 282.561,265.323 281.239 C 266.323 279.524,265.927 279.686,264.663 281.508 M112.800 281.349 C 112.800 281.781,114.389 284.800,114.616 284.800 C 114.726 284.800,114.430 284.035,113.959 283.100 C 113.032 281.261,112.800 280.911,112.800 281.349 M233.238 283.000 C 233.224 284.100,233.365 285.240,233.551 285.534 C 233.749 285.846,233.816 285.182,233.713 283.934 C 233.471 281.003,233.268 280.605,233.238 283.000 M248.360 282.200 C 249.034 283.505,249.588 284.228,249.585 283.800 C 249.583 283.580,249.214 282.950,248.764 282.400 C 248.221 281.736,248.085 281.669,248.360 282.200 M222.614 284.446 C 220.513 286.026,220.316 286.287,221.927 285.362 C 223.062 284.710,224.847 283.145,224.362 283.227 C 224.273 283.242,223.486 283.791,222.614 284.446 M251.776 285.370 C 252.204 285.717,252.924 285.985,253.376 285.966 C 254.037 285.938,253.989 285.867,253.131 285.609 C 252.544 285.431,251.824 285.163,251.531 285.013 C 251.239 284.863,251.349 285.024,251.776 285.370 M259.200 285.434 C 257.890 285.970,257.877 285.992,259.000 285.775 C 259.660 285.648,260.371 285.376,260.580 285.172 C 261.059 284.703,260.921 284.729,259.200 285.434 M115.600 286.800 C 116.049 287.680,116.506 288.400,116.616 288.400 C 116.726 288.400,116.449 287.680,116.000 286.800 C 115.551 285.920,115.094 285.200,114.984 285.200 C 114.874 285.200,115.151 285.920,115.600 286.800 M170.800 285.379 C 170.800 285.489,171.340 285.859,172.000 286.200 C 172.660 286.541,173.200 286.731,173.200 286.621 C 173.200 286.511,172.660 286.141,172.000 285.800 C 171.340 285.459,170.800 285.269,170.800 285.379 M135.881 288.587 C 136.277 289.131,136.766 289.581,136.970 289.587 C 137.173 289.594,136.917 289.150,136.400 288.600 C 135.201 287.323,134.957 287.318,135.881 288.587 M117.149 289.400 C 117.365 289.840,117.834 290.560,118.193 291.000 L 118.844 291.800 118.451 291.000 C 118.235 290.560,117.766 289.840,117.407 289.400 L 116.756 288.600 117.149 289.400 M277.999 290.100 C 277.410 290.904,277.313 291.184,277.745 290.833 C 278.401 290.300,279.393 288.800,279.089 288.800 C 279.013 288.800,278.522 289.385,277.999 290.100 M181.027 290.355 C 181.452 290.744,183.929 291.396,183.554 291.020 C 183.419 290.886,182.711 290.604,181.981 290.395 C 181.251 290.185,180.822 290.168,181.027 290.355 M210.900 290.448 C 210.185 290.654,209.600 290.911,209.600 291.019 C 209.600 291.309,211.738 290.753,212.180 290.348 C 212.616 289.949,212.630 289.948,210.900 290.448 M185.000 291.600 C 186.196 292.114,187.195 292.114,186.400 291.600 C 186.070 291.387,185.440 291.222,185.000 291.234 L 184.200 291.256 185.000 291.600 M275.200 293.400 C 274.228 294.390,273.523 295.200,273.633 295.200 C 273.743 295.200,274.628 294.390,275.600 293.400 C 276.572 292.410,277.277 291.600,277.167 291.600 C 277.057 291.600,276.172 292.410,275.200 293.400 M119.014 292.400 C 119.597 293.456,123.598 298.800,123.806 298.800 C 123.916 298.800,122.988 297.405,121.744 295.700 C 119.435 292.537,118.395 291.279,119.014 292.400 M188.800 292.403 C 189.789 292.717,193.888 292.934,193.567 292.656 C 193.475 292.577,192.140 292.416,190.600 292.299 C 188.973 292.175,188.219 292.219,188.800 292.403 M201.305 292.687 C 201.914 292.779,202.814 292.777,203.305 292.682 C 203.797 292.587,203.300 292.511,202.200 292.514 C 201.100 292.517,200.697 292.595,201.305 292.687 M238.000 293.800 C 238.746 294.570,239.429 295.200,239.518 295.200 C 239.854 295.200,237.382 292.456,237.022 292.429 C 236.813 292.413,237.254 293.030,238.000 293.800 M195.511 293.093 C 196.451 293.178,197.891 293.177,198.711 293.091 C 199.530 293.005,198.760 292.936,197.000 292.937 C 195.240 292.939,194.570 293.009,195.511 293.093 M142.600 296.000 C 144.128 297.540,145.469 298.800,145.579 298.800 C 145.689 298.800,144.528 297.540,143.000 296.000 C 141.472 294.460,140.131 293.200,140.021 293.200 C 139.911 293.200,141.072 294.460,142.600 296.000 M265.400 298.615 C 263.816 299.163,263.814 299.166,265.200 298.938 C 265.970 298.812,266.870 298.554,267.200 298.366 C 268.081 297.864,267.230 297.982,265.400 298.615 M147.486 300.480 C 149.899 302.519,150.387 302.748,148.414 300.915 C 147.416 299.989,146.459 299.224,146.286 299.215 C 146.113 299.207,146.653 299.776,147.486 300.480 M249.029 299.653 C 250.611 299.994,258.964 300.006,261.200 299.670 C 262.190 299.522,259.593 299.400,255.429 299.400 C 251.265 299.400,248.385 299.514,249.029 299.653 M127.800 303.600 C 128.883 304.700,129.860 305.600,129.970 305.600 C 130.080 305.600,129.283 304.700,128.200 303.600 C 127.117 302.500,126.140 301.600,126.030 301.600 C 125.920 301.600,126.717 302.500,127.800 303.600 M157.200 307.379 C 157.200 307.489,157.740 307.859,158.400 308.200 C 159.060 308.541,159.600 308.731,159.600 308.621 C 159.600 308.511,159.060 308.141,158.400 307.800 C 157.740 307.459,157.200 307.269,157.200 307.379 M134.000 309.743 C 134.990 310.800,136.520 312.222,137.400 312.902 C 139.259 314.337,138.842 313.900,135.000 310.383 C 132.854 308.418,132.621 308.269,134.000 309.743 M160.000 308.997 C 160.000 309.268,163.249 310.884,163.430 310.703 C 163.514 310.619,162.776 310.159,161.791 309.681 C 160.806 309.202,160.000 308.894,160.000 308.997 M228.802 312.358 C 228.198 312.525,228.989 312.635,230.800 312.635 C 232.611 312.635,233.402 312.525,232.798 312.358 C 232.249 312.205,231.350 312.080,230.800 312.080 C 230.250 312.080,229.351 312.205,228.802 312.358 M226.200 313.414 C 225.195 313.898,225.163 313.953,226.000 313.751 C 226.550 313.619,227.171 313.350,227.380 313.155 C 227.898 312.671,227.614 312.733,226.200 313.414 M139.200 314.194 C 139.200 314.402,144.544 318.403,145.600 318.986 C 146.721 319.605,145.463 318.565,142.300 316.256 C 140.595 315.012,139.200 314.084,139.200 314.194 M219.400 315.600 C 218.896 315.817,218.822 315.944,219.200 315.944 C 219.530 315.944,220.160 315.789,220.600 315.600 C 221.104 315.383,221.178 315.256,220.800 315.256 C 220.470 315.256,219.840 315.411,219.400 315.600 M181.800 317.159 C 182.240 317.341,183.500 317.598,184.600 317.730 C 185.831 317.878,186.216 317.847,185.600 317.650 C 184.158 317.187,180.822 316.756,181.800 317.159 M238.258 318.000 C 238.575 319.725,238.802 320.051,238.794 318.767 C 238.791 318.235,238.611 317.530,238.394 317.200 C 238.118 316.778,238.077 317.015,238.258 318.000 M210.400 317.620 C 209.726 317.849,210.051 317.884,211.400 317.728 C 212.500 317.601,213.475 317.431,213.567 317.349 C 213.882 317.068,211.399 317.280,210.400 317.620 M189.200 318.412 C 190.195 318.719,195.084 318.932,194.767 318.655 C 194.675 318.575,193.160 318.418,191.400 318.307 C 189.640 318.195,188.650 318.243,189.200 318.412 M203.400 318.400 L 201.000 318.666 203.400 318.693 C 204.720 318.708,206.250 318.576,206.800 318.400 L 207.800 318.080 206.800 318.107 C 206.250 318.122,204.720 318.254,203.400 318.400 M238.454 321.467 C 238.425 321.944,238.296 322.664,238.170 323.067 C 237.952 323.761,237.964 323.762,238.396 323.088 C 238.647 322.697,238.775 321.977,238.681 321.488 C 238.509 320.601,238.509 320.601,238.454 321.467 M236.557 325.422 C 235.873 326.180,235.436 326.800,235.587 326.800 C 235.888 326.800,237.316 325.291,237.764 324.500 C 238.220 323.694,237.883 323.952,236.557 325.422 M158.400 326.134 C 158.400 326.237,158.981 326.524,159.691 326.772 C 160.401 327.019,160.806 327.057,160.591 326.856 C 160.135 326.429,158.400 325.858,158.400 326.134 M163.600 328.333 C 163.930 328.536,164.650 328.824,165.200 328.971 C 165.895 329.157,166.017 329.125,165.600 328.867 C 165.270 328.664,164.550 328.376,164.000 328.229 C 163.305 328.043,163.183 328.075,163.600 328.333 M224.856 330.459 C 224.117 330.672,223.587 330.920,223.679 331.012 C 223.881 331.214,226.800 330.437,226.800 330.181 C 226.800 329.946,226.482 329.991,224.856 330.459 M173.400 331.600 C 173.840 331.789,174.470 331.944,174.800 331.944 C 175.178 331.944,175.104 331.817,174.600 331.600 C 174.160 331.411,173.530 331.256,173.200 331.256 C 172.822 331.256,172.896 331.383,173.400 331.600 M217.400 332.400 C 216.311 332.677,216.293 332.707,217.200 332.725 C 217.750 332.735,218.560 332.589,219.000 332.400 C 219.986 331.976,219.066 331.976,217.400 332.400 M183.000 333.600 C 183.660 333.768,184.650 333.905,185.200 333.905 C 186.092 333.905,186.070 333.872,185.000 333.600 C 184.340 333.432,183.350 333.295,182.800 333.295 C 181.908 333.295,181.930 333.328,183.000 333.600 M210.800 333.600 L 209.800 333.920 210.800 333.913 C 211.350 333.909,212.340 333.768,213.000 333.600 L 214.200 333.295 213.000 333.287 C 212.340 333.283,211.350 333.424,210.800 333.600 M188.705 334.283 C 189.202 334.379,189.922 334.375,190.305 334.275 C 190.687 334.175,190.280 334.096,189.400 334.101 C 188.520 334.105,188.207 334.187,188.705 334.283 M198.400 334.400 L 191.400 334.629 198.000 334.691 C 201.630 334.726,205.320 334.605,206.200 334.423 C 207.449 334.165,207.537 334.101,206.600 334.132 C 205.940 334.153,202.250 334.274,198.400 334.400 " stroke="none" fill="#949494" fill-rule="evenodd"></path><path id="path4" d="M194.500 64.276 C 194.885 64.376,195.515 64.376,195.900 64.276 C 196.285 64.175,195.970 64.093,195.200 64.093 C 194.430 64.093,194.115 64.175,194.500 64.276 M201.022 66.825 C 201.890 67.829,202.681 68.588,202.780 68.512 C 202.880 68.435,202.170 67.614,201.203 66.686 L 199.444 65.000 201.022 66.825 M178.000 86.000 C 177.551 86.880,177.274 87.600,177.384 87.600 C 177.494 87.600,177.951 86.880,178.400 86.000 C 178.849 85.120,179.126 84.400,179.016 84.400 C 178.906 84.400,178.449 85.120,178.000 86.000 M215.204 89.400 C 215.205 89.620,215.563 90.340,216.000 91.000 C 217.036 92.564,217.037 92.008,216.001 90.310 C 215.562 89.589,215.204 89.180,215.204 89.400 M217.639 93.776 C 218.101 94.559,218.556 95.200,218.650 95.200 C 218.934 95.200,217.636 92.869,217.202 92.601 C 216.980 92.464,217.177 92.993,217.639 93.776 M199.787 95.975 C 200.121 96.621,200.576 97.261,200.798 97.399 C 201.020 97.536,200.823 97.007,200.361 96.224 C 199.348 94.507,198.935 94.328,199.787 95.975 M223.041 102.600 C 223.641 103.700,224.302 104.780,224.510 105.000 C 225.103 105.627,223.341 102.295,222.606 101.400 C 222.245 100.960,222.441 101.500,223.041 102.600 M185.600 106.000 C 185.151 106.880,184.874 107.600,184.984 107.600 C 185.094 107.600,185.551 106.880,186.000 106.000 C 186.449 105.120,186.726 104.400,186.616 104.400 C 186.506 104.400,186.049 105.120,185.600 106.000 M289.154 109.069 C 289.660 110.067,291.494 111.606,292.154 111.588 C 292.399 111.581,292.240 111.384,291.800 111.150 C 291.360 110.916,290.485 110.156,289.856 109.462 C 289.096 108.623,288.860 108.491,289.154 109.069 M237.600 126.800 C 238.049 127.680,238.506 128.400,238.616 128.400 C 238.726 128.400,238.449 127.680,238.000 126.800 C 237.551 125.920,237.094 125.200,236.984 125.200 C 236.874 125.200,237.151 125.920,237.600 126.800 M244.600 138.400 C 244.941 139.060,245.311 139.600,245.421 139.600 C 245.531 139.600,245.341 139.060,245.000 138.400 C 244.659 137.740,244.289 137.200,244.179 137.200 C 244.069 137.200,244.259 137.740,244.600 138.400 M147.800 139.200 C 147.459 139.860,147.269 140.400,147.379 140.400 C 147.489 140.400,147.859 139.860,148.200 139.200 C 148.541 138.540,148.731 138.000,148.621 138.000 C 148.511 138.000,148.141 138.540,147.800 139.200 M165.600 141.200 C 165.151 142.080,164.874 142.800,164.984 142.800 C 165.094 142.800,165.551 142.080,166.000 141.200 C 166.449 140.320,166.726 139.600,166.616 139.600 C 166.506 139.600,166.049 140.320,165.600 141.200 M250.349 147.800 C 250.565 148.240,251.034 148.960,251.393 149.400 L 252.044 150.200 251.651 149.400 C 251.435 148.960,250.966 148.240,250.607 147.800 L 249.956 147.000 250.349 147.800 M153.800 162.000 C 153.459 162.660,153.269 163.200,153.379 163.200 C 153.489 163.200,153.859 162.660,154.200 162.000 C 154.541 161.340,154.731 160.800,154.621 160.800 C 154.511 160.800,154.141 161.340,153.800 162.000 M152.200 164.800 C 151.859 165.460,151.669 166.000,151.779 166.000 C 151.889 166.000,152.259 165.460,152.600 164.800 C 152.941 164.140,153.131 163.600,153.021 163.600 C 152.911 163.600,152.541 164.140,152.200 164.800 M243.200 167.714 C 243.200 168.085,245.622 172.000,245.851 172.000 C 246.051 172.000,244.074 168.434,243.534 167.820 C 243.350 167.611,243.200 167.563,243.200 167.714 M145.600 176.400 C 145.151 177.280,144.874 178.000,144.984 178.000 C 145.094 178.000,145.551 177.280,146.000 176.400 C 146.449 175.520,146.726 174.800,146.616 174.800 C 146.506 174.800,146.049 175.520,145.600 176.400 M126.000 177.600 C 125.551 178.480,125.274 179.200,125.384 179.200 C 125.494 179.200,125.951 178.480,126.400 177.600 C 126.849 176.720,127.126 176.000,127.016 176.000 C 126.906 176.000,126.449 176.720,126.000 177.600 M117.800 192.000 C 117.459 192.660,117.269 193.200,117.379 193.200 C 117.489 193.200,117.859 192.660,118.200 192.000 C 118.541 191.340,118.731 190.800,118.621 190.800 C 118.511 190.800,118.141 191.340,117.800 192.000 M257.787 191.975 C 258.121 192.621,258.576 193.261,258.798 193.399 C 259.020 193.536,258.823 193.007,258.361 192.224 C 257.348 190.507,256.935 190.328,257.787 191.975 M194.200 195.566 C 193.083 195.701,194.762 195.806,198.000 195.804 C 201.535 195.801,203.097 195.694,202.000 195.530 C 199.898 195.214,197.016 195.227,194.200 195.566 M208.433 196.543 C 208.525 196.621,209.230 196.801,210.000 196.942 C 210.985 197.123,211.222 197.082,210.800 196.806 C 210.258 196.450,208.037 196.203,208.433 196.543 M180.200 198.614 C 179.200 199.096,179.166 199.151,180.000 198.948 C 181.133 198.671,182.407 198.021,181.800 198.030 C 181.580 198.033,180.860 198.296,180.200 198.614 M131.682 200.827 C 131.184 201.692,130.857 202.400,130.955 202.400 C 131.231 202.400,132.912 199.579,132.739 199.406 C 132.655 199.322,132.180 199.962,131.682 200.827 M220.000 200.134 C 220.000 200.237,220.581 200.524,221.291 200.772 C 222.001 201.019,222.406 201.057,222.191 200.856 C 221.735 200.429,220.000 199.858,220.000 200.134 M224.400 202.124 C 224.400 202.217,225.165 202.798,226.100 203.415 C 227.035 204.032,227.589 204.280,227.331 203.968 C 226.834 203.367,224.400 201.836,224.400 202.124 M230.600 206.800 C 231.459 207.680,232.252 208.400,232.362 208.400 C 232.472 208.400,231.859 207.680,231.000 206.800 C 230.141 205.920,229.348 205.200,229.238 205.200 C 229.128 205.200,229.741 205.920,230.600 206.800 M268.000 209.200 C 268.449 210.080,268.906 210.800,269.016 210.800 C 269.126 210.800,268.849 210.080,268.400 209.200 C 267.951 208.320,267.494 207.600,267.384 207.600 C 267.274 207.600,267.551 208.320,268.000 209.200 M163.178 209.500 L 161.800 211.000 163.300 209.622 C 164.696 208.338,164.984 208.000,164.678 208.000 C 164.612 208.000,163.937 208.675,163.178 209.500 M108.444 210.444 C 108.198 211.151,108.066 211.800,108.152 211.885 C 108.238 211.971,108.509 211.462,108.756 210.756 C 109.002 210.049,109.134 209.400,109.048 209.315 C 108.962 209.229,108.691 209.738,108.444 210.444 M193.600 210.353 C 192.830 210.489,194.888 210.600,198.174 210.600 C 201.459 210.600,203.619 210.486,202.974 210.347 C 201.478 210.025,195.434 210.029,193.600 210.353 M235.200 211.400 C 235.946 212.170,236.647 212.800,236.757 212.800 C 236.867 212.800,236.346 212.170,235.600 211.400 C 234.854 210.630,234.153 210.000,234.043 210.000 C 233.933 210.000,234.454 210.630,235.200 211.400 M206.400 211.182 C 206.730 211.405,207.345 211.591,207.767 211.594 C 208.790 211.602,208.471 211.373,207.000 211.044 C 206.124 210.848,205.962 210.885,206.400 211.182 M158.075 215.584 C 157.094 216.911,156.878 217.850,157.842 216.600 C 158.578 215.645,159.284 214.400,159.089 214.400 C 159.013 214.400,158.557 214.933,158.075 215.584 M218.000 215.711 C 218.000 215.787,218.585 216.278,219.300 216.801 C 220.104 217.390,220.384 217.487,220.033 217.055 C 219.500 216.399,218.000 215.407,218.000 215.711 M289.195 216.781 C 289.404 217.511,289.686 218.219,289.820 218.354 C 290.196 218.729,289.544 216.252,289.155 215.827 C 288.968 215.622,288.985 216.051,289.195 216.781 M272.218 218.100 C 272.368 218.595,272.655 219.176,272.856 219.391 C 273.057 219.606,273.019 219.201,272.772 218.491 C 272.265 217.038,271.797 216.708,272.218 218.100 M222.800 219.800 C 223.995 221.010,225.063 222.000,225.173 222.000 C 225.283 222.000,224.395 221.010,223.200 219.800 C 222.005 218.590,220.937 217.600,220.827 217.600 C 220.717 217.600,221.605 218.590,222.800 219.800 M105.450 220.050 C 105.117 221.717,105.440 222.040,105.800 220.400 C 105.952 219.709,105.993 219.059,105.891 218.958 C 105.789 218.856,105.591 219.347,105.450 220.050 M291.062 223.800 C 291.196 224.680,291.372 225.475,291.453 225.567 C 291.756 225.910,291.529 223.768,291.181 223.000 C 290.929 222.442,290.893 222.685,291.062 223.800 M104.649 223.415 C 104.512 223.773,104.418 224.456,104.441 224.933 C 104.467 225.481,104.603 225.286,104.810 224.403 C 105.160 222.916,105.065 222.333,104.649 223.415 M170.153 224.100 C 168.776 226.436,168.686 226.635,169.387 225.800 C 170.200 224.832,170.900 223.600,170.638 223.600 C 170.533 223.600,170.315 223.825,170.153 224.100 M121.246 224.467 C 121.221 224.834,121.096 225.464,120.970 225.867 C 120.752 226.562,120.763 226.563,121.197 225.887 C 121.448 225.496,121.573 224.866,121.473 224.487 C 121.311 223.868,121.288 223.866,121.246 224.467 M274.406 224.633 C 274.409 225.055,274.595 225.670,274.818 226.000 C 275.115 226.438,275.152 226.276,274.956 225.400 C 274.627 223.929,274.398 223.610,274.406 224.633 M120.240 229.640 C 120.093 230.557,120.052 231.385,120.147 231.480 C 120.242 231.576,120.446 230.910,120.600 230.000 C 120.754 229.090,120.796 228.262,120.693 228.160 C 120.590 228.057,120.387 228.723,120.240 229.640 M275.462 229.400 C 275.596 230.280,275.772 231.075,275.853 231.167 C 276.156 231.510,275.929 229.368,275.581 228.600 C 275.329 228.042,275.293 228.285,275.462 229.400 M292.069 229.600 C 292.056 230.150,292.195 231.320,292.377 232.200 C 292.589 233.226,292.716 233.441,292.731 232.800 C 292.744 232.250,292.605 231.080,292.423 230.200 C 292.211 229.174,292.084 228.959,292.069 229.600 M103.429 232.029 C 103.276 233.379,103.233 234.566,103.333 234.667 C 103.434 234.767,103.644 233.747,103.800 232.400 C 103.956 231.053,103.999 229.866,103.895 229.762 C 103.791 229.658,103.581 230.678,103.429 232.029 M151.473 230.153 C 151.323 230.545,151.211 231.166,151.225 231.533 C 151.242 231.975,151.381 231.874,151.637 231.234 C 151.849 230.703,151.961 230.082,151.885 229.854 C 151.809 229.627,151.624 229.761,151.473 230.153 M276.101 234.200 C 276.105 235.080,276.187 235.393,276.283 234.895 C 276.379 234.398,276.375 233.678,276.275 233.295 C 276.175 232.913,276.096 233.320,276.101 234.200 M246.080 234.200 C 246.080 234.640,246.224 235.450,246.400 236.000 C 246.654 236.792,246.720 236.833,246.720 236.200 C 246.720 235.760,246.576 234.950,246.400 234.400 C 246.146 233.608,246.080 233.567,246.080 234.200 M119.701 235.400 C 119.705 236.280,119.787 236.593,119.883 236.095 C 119.979 235.598,119.975 234.878,119.875 234.495 C 119.775 234.113,119.696 234.520,119.701 235.400 M150.493 235.600 C 150.493 236.370,150.575 236.685,150.676 236.300 C 150.776 235.915,150.776 235.285,150.676 234.900 C 150.575 234.515,150.493 234.830,150.493 235.600 M165.246 235.267 C 165.221 235.634,165.096 236.264,164.970 236.667 C 164.752 237.362,164.763 237.363,165.197 236.687 C 165.448 236.296,165.573 235.666,165.473 235.287 C 165.311 234.668,165.288 234.666,165.246 235.267 M276.542 240.200 C 276.541 242.180,276.608 243.040,276.692 242.112 C 276.776 241.184,276.777 239.564,276.695 238.512 C 276.612 237.460,276.543 238.220,276.542 240.200 M119.754 242.000 C 119.754 244.750,119.818 245.875,119.896 244.500 C 119.974 243.125,119.974 240.875,119.896 239.500 C 119.818 238.125,119.754 239.250,119.754 242.000 M150.101 239.000 C 150.105 239.880,150.187 240.193,150.283 239.695 C 150.379 239.198,150.375 238.478,150.275 238.095 C 150.175 237.713,150.096 238.120,150.101 239.000 M164.184 241.838 C 164.027 243.509,164.057 245.984,164.249 247.338 C 164.554 249.478,164.601 249.080,164.610 244.300 C 164.621 237.959,164.573 237.681,164.184 241.838 M232.553 244.600 C 232.553 247.240,232.618 248.268,232.697 246.884 C 232.775 245.501,232.774 243.341,232.695 242.084 C 232.616 240.828,232.552 241.960,232.553 244.600 M246.928 258.600 C 246.910 268.940,247.008 277.933,247.147 278.585 C 247.385 279.699,247.324 249.289,247.076 242.800 C 247.013 241.150,246.946 248.260,246.928 258.600 M276.101 246.600 C 276.105 247.480,276.187 247.793,276.283 247.295 C 276.379 246.798,276.375 246.078,276.275 245.695 C 276.175 245.313,276.096 245.720,276.101 246.600 M103.283 246.800 C 103.270 247.570,103.403 249.010,103.580 250.000 C 104.012 252.431,104.046 250.147,103.618 247.400 C 103.364 245.765,103.303 245.655,103.283 246.800 M292.229 249.629 C 292.076 250.979,292.033 252.166,292.133 252.267 C 292.234 252.367,292.444 251.347,292.600 250.000 C 292.756 248.653,292.799 247.466,292.695 247.362 C 292.591 247.258,292.381 248.278,292.229 249.629 M150.109 249.600 C 150.109 250.590,150.187 250.995,150.282 250.500 C 150.378 250.005,150.378 249.195,150.282 248.700 C 150.187 248.205,150.109 248.610,150.109 249.600 M120.087 250.000 C 120.083 250.550,120.224 251.450,120.400 252.000 C 120.831 253.344,120.831 251.892,120.400 250.200 C 120.126 249.122,120.094 249.102,120.087 250.000 M275.440 251.640 C 275.293 252.557,275.252 253.385,275.347 253.480 C 275.442 253.576,275.646 252.910,275.800 252.000 C 275.954 251.090,275.996 250.262,275.893 250.160 C 275.790 250.057,275.587 250.723,275.440 251.640 M150.406 252.833 C 150.409 253.585,150.577 254.461,150.779 254.779 C 151.016 255.154,151.065 254.730,150.918 253.579 C 150.635 251.370,150.398 251.025,150.406 252.833 M165.044 252.600 C 165.373 254.071,165.602 254.390,165.594 253.367 C 165.591 252.945,165.405 252.330,165.182 252.000 C 164.885 251.562,164.848 251.724,165.044 252.600 M121.062 255.800 C 121.196 256.680,121.372 257.475,121.453 257.567 C 121.756 257.910,121.529 255.768,121.181 255.000 C 120.929 254.442,120.893 254.685,121.062 255.800 M274.649 255.815 C 274.512 256.173,274.418 256.856,274.441 257.333 C 274.467 257.881,274.603 257.686,274.810 256.803 C 275.160 255.316,275.065 254.733,274.649 255.815 M104.428 256.433 C 104.444 256.965,104.619 257.760,104.819 258.200 C 105.071 258.758,105.107 258.515,104.938 257.400 C 104.655 255.543,104.387 255.036,104.428 256.433 M230.548 256.300 C 230.424 256.685,230.071 257.675,229.764 258.500 C 229.457 259.325,229.299 260.000,229.413 260.000 C 229.636 260.000,230.283 258.475,230.815 256.700 C 231.170 255.513,230.923 255.142,230.548 256.300 M122.056 260.000 C 122.056 260.330,122.211 260.960,122.400 261.400 C 122.617 261.904,122.744 261.978,122.744 261.600 C 122.744 261.270,122.589 260.640,122.400 260.200 C 122.183 259.696,122.056 259.622,122.056 260.000 M105.206 260.633 C 105.209 261.055,105.395 261.670,105.618 262.000 C 105.915 262.438,105.952 262.276,105.756 261.400 C 105.427 259.929,105.198 259.610,105.206 260.633 M272.679 263.500 C 272.369 264.053,271.932 266.202,272.180 265.954 C 272.477 265.656,273.205 263.200,272.996 263.200 C 272.914 263.200,272.771 263.335,272.679 263.500 M289.449 264.615 C 289.312 264.973,289.215 265.566,289.234 265.933 C 289.253 266.300,289.427 266.069,289.621 265.420 C 289.998 264.158,289.865 263.533,289.449 264.615 M222.786 269.100 L 220.600 271.400 222.900 269.214 C 225.037 267.182,225.383 266.800,225.086 266.800 C 225.024 266.800,223.989 267.835,222.786 269.100 M173.600 269.000 C 174.572 269.990,175.485 270.800,175.631 270.800 C 175.776 270.800,175.085 269.990,174.095 269.000 C 173.105 268.010,172.191 267.200,172.064 267.200 C 171.937 267.200,172.628 268.010,173.600 269.000 M158.323 273.400 C 158.555 273.840,159.313 274.830,160.008 275.600 L 161.272 277.000 159.965 275.200 C 158.364 272.996,157.764 272.338,158.323 273.400 M127.681 274.991 C 128.159 275.976,128.619 276.714,128.703 276.630 C 128.884 276.449,127.268 273.200,126.997 273.200 C 126.894 273.200,127.202 274.006,127.681 274.991 M232.600 275.106 C 232.380 275.268,231.841 275.850,231.403 276.400 L 230.606 277.400 231.688 276.445 L 232.770 275.489 232.901 279.445 L 233.033 283.400 233.116 279.100 C 233.162 276.735,233.155 274.803,233.100 274.806 C 233.045 274.809,232.820 274.944,232.600 275.106 M185.200 276.333 C 185.530 276.536,186.250 276.824,186.800 276.971 C 187.495 277.157,187.617 277.125,187.200 276.867 C 186.870 276.664,186.150 276.376,185.600 276.229 C 184.905 276.043,184.783 276.075,185.200 276.333 M210.200 276.614 C 209.200 277.096,209.166 277.151,210.000 276.948 C 211.133 276.671,212.407 276.021,211.800 276.030 C 211.580 276.033,210.860 276.296,210.200 276.614 M206.400 277.600 C 205.596 277.857,205.557 277.923,206.200 277.932 C 206.640 277.938,207.360 277.789,207.800 277.600 C 208.819 277.162,207.768 277.162,206.400 277.600 M226.800 281.303 C 224.710 283.321,223.720 284.407,224.600 283.717 C 226.189 282.471,231.146 277.584,230.787 277.618 C 230.684 277.627,228.890 279.286,226.800 281.303 M196.512 278.695 C 197.564 278.777,199.184 278.776,200.112 278.692 C 201.040 278.608,200.180 278.541,198.200 278.542 C 196.220 278.543,195.460 278.612,196.512 278.695 M164.783 280.900 C 166.441 282.666,166.800 282.984,166.800 282.683 C 166.800 282.619,165.945 281.764,164.900 280.783 L 163.000 279.000 164.783 280.900 M132.000 282.555 C 132.000 282.902,136.330 288.800,136.585 288.800 C 136.734 288.800,132.683 282.970,132.162 282.433 C 132.073 282.342,132.000 282.396,132.000 282.555 M253.200 285.635 C 254.486 286.002,257.601 286.023,258.481 285.672 C 258.855 285.522,257.595 285.389,255.681 285.375 C 253.670 285.361,252.622 285.471,253.200 285.635 M276.413 292.500 C 275.223 293.875,274.751 294.550,275.364 294.000 C 276.476 293.003,278.997 290.000,278.723 290.000 C 278.643 290.000,277.604 291.125,276.413 292.500 M142.400 295.400 C 144.481 297.490,146.274 299.200,146.384 299.200 C 146.494 299.200,144.881 297.490,142.800 295.400 C 140.719 293.310,138.926 291.600,138.816 291.600 C 138.706 291.600,140.319 293.310,142.400 295.400 M187.400 292.400 C 187.840 292.589,188.560 292.738,189.000 292.732 C 189.643 292.723,189.604 292.657,188.800 292.400 C 187.432 291.962,186.381 291.962,187.400 292.400 M204.800 292.400 C 203.996 292.657,203.957 292.723,204.600 292.732 C 205.040 292.738,205.760 292.589,206.200 292.400 C 207.219 291.962,206.168 291.962,204.800 292.400 M193.280 293.260 C 194.447 293.590,199.427 293.585,200.978 293.253 C 201.626 293.114,199.952 293.000,197.258 293.000 C 194.563 293.000,192.773 293.117,193.280 293.260 M120.000 294.400 C 120.470 295.060,120.944 295.600,121.054 295.600 C 121.164 295.600,120.870 295.060,120.400 294.400 C 119.930 293.740,119.456 293.200,119.346 293.200 C 119.236 293.200,119.530 293.740,120.000 294.400 M240.109 296.000 C 240.669 296.440,241.257 296.800,241.417 296.800 C 241.577 296.800,241.250 296.440,240.691 296.000 C 240.131 295.560,239.543 295.200,239.383 295.200 C 239.223 295.200,239.550 295.560,240.109 296.000 M272.400 296.036 C 271.736 296.579,271.669 296.715,272.200 296.440 C 273.505 295.766,274.228 295.212,273.800 295.215 C 273.580 295.217,272.950 295.586,272.400 296.036 M264.000 299.200 L 262.600 299.495 263.876 299.547 C 264.578 299.576,265.264 299.420,265.400 299.200 C 265.536 298.980,265.592 298.824,265.524 298.853 C 265.456 298.882,264.770 299.038,264.000 299.200 M124.681 300.587 C 125.077 301.131,125.566 301.581,125.770 301.587 C 125.973 301.594,125.717 301.150,125.200 300.600 C 124.001 299.323,123.757 299.318,124.681 300.587 M260.500 299.876 C 260.885 299.976,261.515 299.976,261.900 299.876 C 262.285 299.775,261.970 299.693,261.200 299.693 C 260.430 299.693,260.115 299.775,260.500 299.876 M149.200 301.394 C 149.200 301.602,154.544 305.603,155.600 306.186 C 156.721 306.805,155.463 305.765,152.300 303.456 C 150.595 302.212,149.200 301.284,149.200 301.394 M130.800 307.000 C 133.543 309.750,135.878 312.000,135.988 312.000 C 136.098 312.000,133.943 309.750,131.200 307.000 C 128.457 304.250,126.122 302.000,126.012 302.000 C 125.902 302.000,128.057 304.250,130.800 307.000 M235.800 313.825 C 236.240 314.154,236.931 314.823,237.335 315.312 C 237.739 315.800,237.937 315.930,237.775 315.600 C 237.298 314.627,235.895 313.199,235.430 313.213 C 235.194 313.220,235.360 313.495,235.800 313.825 M214.464 316.473 C 213.509 316.687,212.808 316.941,212.906 317.039 C 213.112 317.246,217.200 316.415,217.200 316.167 C 217.200 315.939,216.511 316.016,214.464 316.473 M180.000 316.556 C 180.000 316.642,180.617 316.785,181.372 316.873 C 182.127 316.961,182.656 316.890,182.548 316.716 C 182.355 316.403,180.000 316.255,180.000 316.556 M142.400 316.946 C 142.400 317.056,142.940 317.530,143.600 318.000 C 144.260 318.470,144.800 318.764,144.800 318.654 C 144.800 318.544,144.260 318.070,143.600 317.600 C 142.940 317.130,142.400 316.836,142.400 316.946 M185.600 317.580 C 186.599 317.920,189.082 318.132,188.767 317.851 C 188.675 317.769,187.700 317.599,186.600 317.472 C 185.251 317.316,184.926 317.351,185.600 317.580 M208.600 317.600 C 207.522 317.874,207.502 317.906,208.400 317.913 C 208.950 317.917,209.850 317.776,210.400 317.600 C 211.744 317.169,210.292 317.169,208.600 317.600 M190.905 318.287 C 191.514 318.379,192.414 318.377,192.905 318.282 C 193.397 318.187,192.900 318.111,191.800 318.114 C 190.700 318.117,190.297 318.195,190.905 318.287 M203.100 318.282 C 203.595 318.378,204.405 318.378,204.900 318.282 C 205.395 318.187,204.990 318.109,204.000 318.109 C 203.010 318.109,202.605 318.187,203.100 318.282 M196.300 318.693 C 197.235 318.777,198.765 318.777,199.700 318.693 C 200.635 318.609,199.870 318.540,198.000 318.540 C 196.130 318.540,195.365 318.609,196.300 318.693 M238.879 320.300 C 238.863 321.235,238.908 322.000,238.978 322.000 C 239.286 322.000,239.437 320.076,239.184 319.373 C 239.000 318.858,238.898 319.167,238.879 320.300 M175.600 332.382 C 175.930 332.605,176.545 332.791,176.967 332.794 C 177.990 332.802,177.671 332.573,176.200 332.244 C 175.324 332.048,175.162 332.085,175.600 332.382 M219.000 332.400 C 217.981 332.838,219.032 332.838,220.400 332.400 C 221.204 332.143,221.243 332.077,220.600 332.068 C 220.160 332.062,219.440 332.211,219.000 332.400 M179.200 333.205 C 179.530 333.416,180.325 333.591,180.967 333.594 C 182.514 333.602,182.177 333.371,180.200 333.068 C 179.110 332.901,178.791 332.945,179.200 333.205 M215.000 333.200 C 213.911 333.477,213.893 333.507,214.800 333.525 C 215.350 333.535,216.160 333.389,216.600 333.200 C 217.586 332.776,216.666 332.776,215.000 333.200 M187.000 334.389 C 188.216 334.709,191.873 334.922,191.567 334.655 C 191.475 334.575,190.140 334.411,188.600 334.291 C 186.902 334.159,186.272 334.198,187.000 334.389 M206.400 334.400 C 204.401 334.821,206.452 334.838,208.800 334.420 C 210.424 334.132,210.463 334.100,209.200 334.103 C 208.430 334.104,207.170 334.238,206.400 334.400 " stroke="none" fill="#747173" fill-rule="evenodd"></path></g></svg>