<svg id="Layer_1" data-name="Layer 1" xmlns="http://www.w3.org/2000/svg" xmlns:xlink="http://www.w3.org/1999/xlink" viewBox="0 0 180 180"><defs><linearGradient id="linear-gradient" x1="-1.2" y1="89.8" x2="180.4" y2="89.8" gradientUnits="userSpaceOnUse"><stop offset="0"/><stop offset="1"/></linearGradient></defs><rect x="-1.2" y="-1" width="181.6" height="181.6" style="fill:url(#linear-gradient)"/><path d="M141.57,11.53h26.94a0,0,0,0,1,0,0V59.37a2.87,2.87,0,0,1-2.87,2.87H144.44a2.87,2.87,0,0,1-2.87-2.87V11.53A0,0,0,0,1,141.57,11.53Z" transform="translate(191.92 -118.16) rotate(90)" style="fill:#f05e3e"/><path d="M137.54,43.68a.95.95,0,0,1-1.62-.67V30.75a.91.91,0,0,1,.94-.94h3.62a4.8,4.8,0,0,1,2.4.6,4.22,4.22,0,0,1,1.64,1.66,4.91,4.91,0,0,1,.59,2.43,4.56,4.56,0,0,1-.59,2.35,4.19,4.19,0,0,1-1.64,1.62,5,5,0,0,1-2.4.57H137.8v4A.94.94,0,0,1,137.54,43.68Zm5-7.16a2.73,2.73,0,0,0,.79-2,3,3,0,0,0-.79-2.12,2.71,2.71,0,0,0-2-.83H137.8v5.76h2.68A2.79,2.79,0,0,0,142.51,36.52Z" style="fill:#fff;stroke:#fff;stroke-miterlimit:10"/><path d="M157.46,43.1a.82.82,0,0,1-.25.61.89.89,0,0,1-.66.24.91.91,0,0,1-.81-.45l-3.11-5H150V43a.94.94,0,0,1-.26.67A.95.95,0,0,1,148.1,43V30.75a.93.93,0,0,1,.27-.68,1,1,0,0,1,.67-.26h3.26a5.12,5.12,0,0,1,2.4.56A4.18,4.18,0,0,1,156.35,32a4.54,4.54,0,0,1,.58,2.32,4,4,0,0,1-2.42,3.78l2.77,4.45A1.16,1.16,0,0,1,157.46,43.1Zm-5.16-6.34a3,3,0,0,0,2-.69,2.29,2.29,0,0,0,.79-1.8,2.59,2.59,0,0,0-.79-2,2.81,2.81,0,0,0-2-.76H150v5.21Z" style="fill:#fff;stroke:#fff;stroke-miterlimit:10"/><path d="M170.7,30.55a6.52,6.52,0,0,1,2.55,2.58,7.54,7.54,0,0,1,.92,3.74,7.67,7.67,0,0,1-.92,3.76,6.5,6.5,0,0,1-2.54,2.58,8,8,0,0,1-7.47,0,6.5,6.5,0,0,1-2.54-2.58,7.78,7.78,0,0,1-.91-3.76,7.64,7.64,0,0,1,.91-3.74,6.5,6.5,0,0,1,2.54-2.58,8,8,0,0,1,7.46,0Zm-6.5,1.51a5.08,5.08,0,0,0-1.91,2,5.77,5.77,0,0,0-.69,2.82,5.84,5.84,0,0,0,.69,2.83,5.2,5.2,0,0,0,1.92,2,5.62,5.62,0,0,0,5.54,0,5.2,5.2,0,0,0,1.92-2,5.84,5.84,0,0,0,.69-2.83,5.77,5.77,0,0,0-.69-2.82,5,5,0,0,0-1.91-2,5.66,5.66,0,0,0-5.56,0Z" style="fill:#fff;stroke:#fff;stroke-miterlimit:10"/><path d="M125.54,88,91,30.75a3.53,3.53,0,0,0-4.86-1.23,3.65,3.65,0,0,0-1.28,1.31L52.11,88.43a37.46,37.46,0,0,0-5.54,19.63,42.51,42.51,0,0,0,58.35,39.46,4.89,4.89,0,0,0,.48-.2l.37-.15h0a3.59,3.59,0,0,0-1.94-6.64,3.4,3.4,0,0,0-1.5.35,35.76,35.76,0,0,1-13.2,2.56h0A35.44,35.44,0,0,1,53.7,108.06,30.46,30.46,0,0,1,58.31,92L88,39.66l31.44,52c3.15,5.21,5.1,9.77,5.1,16.37a35.15,35.15,0,0,1-5.46,18.83,4.9,4.9,0,0,1-4.54,1.75,3,3,0,0,1-2.58-1.32,6.46,6.46,0,0,1-.92-3.74V109.9a22.6,22.6,0,0,0-2.78-11.26,20.06,20.06,0,0,0-7.72-7.76,24,24,0,0,0-22.43,0,20.06,20.06,0,0,0-7.72,7.76,22.6,22.6,0,0,0-2.78,11.26,23,23,0,0,0,2.74,11.25A19.8,19.8,0,0,0,78,129,21.82,21.82,0,0,0,89,131.82a18.65,18.65,0,0,0,9.1-2.47,18,18,0,0,0,6.81-6.2v3a8.26,8.26,0,0,0,2.58,6.32,9.42,9.42,0,0,0,6.64,2.43c5.42.07,9.18-.85,11.95-5.8a42.1,42.1,0,0,0,5.57-21C131.67,99.81,129.22,94.09,125.54,88Zm-22.68,30a14.33,14.33,0,0,1-5.53,5.5,16,16,0,0,1-8,2,16.46,16.46,0,0,1-8.08-1.94A13.65,13.65,0,0,1,75.8,118a16.31,16.31,0,0,1-2-8.06,15.83,15.83,0,0,1,2-8,14.17,14.17,0,0,1,5.48-5.54,17.27,17.27,0,0,1,16,0,14.23,14.23,0,0,1,5.53,5.54,17.08,17.08,0,0,1,0,16Z" style="fill:#fff"/></svg>