<svg id="Layer_1" data-name="Layer 1" xmlns="http://www.w3.org/2000/svg" viewBox="0 0 135.12 128.14"><path d="M64.58,76l-.44.53a23.24,23.24,0,0,1-4.43,4.32,14.57,14.57,0,0,1-5.78,2.64,12.47,12.47,0,0,1-5.37,0,8.53,8.53,0,0,1-5.49-4,13.18,13.18,0,0,1-1.67-4.6,26.3,26.3,0,0,1-.24-6.75,38,38,0,0,1,1.77-9.08,36.86,36.86,0,0,1,6.91-12.67,25.48,25.48,0,0,1,6.9-5.85,17.14,17.14,0,0,1,5.8-2.11,11.86,11.86,0,0,1,5.1.16,10.13,10.13,0,0,1,4.42,2.62c.14.14.28.28.47.49.21-.77.4-1.46.6-2.16h7.09c0,.12,0,.23-.07.34-1.86,6.46-3.46,13-5,19.54-.78,3.38-1.55,6.76-2.46,10.12-.19.71-.36,1.44-.57,2.15a24.39,24.39,0,0,0-.73,3.79,38.24,38.24,0,0,0-.4,6.68,15.43,15.43,0,0,0,1.13,5.45A7.64,7.64,0,0,0,73.71,90a4.3,4.3,0,0,0,3,1.32,8.41,8.41,0,0,0,3.85-.8A14.5,14.5,0,0,0,84,88.31c.67-.56,1.33-1.13,2-1.65a8.89,8.89,0,0,1,4.47-1.72,5.93,5.93,0,0,1,3.26.65,23.83,23.83,0,0,0,3.18,1.3,15.35,15.35,0,0,0,6.08.79,9.69,9.69,0,0,0,4.62-1.42,7.64,7.64,0,0,0,.79-.58,3.74,3.74,0,0,0,1.33-3.93c-.11-.49-.34-1-.48-1.44a17.84,17.84,0,0,1-.46-1.74,1.57,1.57,0,0,1,.38-1.42c.4-.45.81-.9,1.25-1.31a6.2,6.2,0,0,0,1.31-1.66,2.85,2.85,0,0,0,.34-1.57,1.41,1.41,0,0,0-.75-1.15,2.94,2.94,0,0,0-1.42-.36h-1.25l-.56-.06V71l.36-.07a17.47,17.47,0,0,0,1.78-.34,5.31,5.31,0,0,0,2.5-1.66,1.5,1.5,0,0,0,.25-1.72,3.1,3.1,0,0,0-.73-1c-.28-.28-.56-.55-.83-.83a1.77,1.77,0,0,1,0-2.66,13.65,13.65,0,0,1,1.47-1.25c.65-.5,1.33-1,2-1.46a6.32,6.32,0,0,0,1.37-1.41,1.83,1.83,0,0,0,0-2.43,15.21,15.21,0,0,0-1.36-1.42A28.25,28.25,0,0,1,111.36,51a14.59,14.59,0,0,1-2.18-3.79,12.16,12.16,0,0,1-.65-3.53,36.49,36.49,0,0,1,.11-4.31,12.25,12.25,0,0,0-.69-4.61,16,16,0,0,0-4.82-7,21.73,21.73,0,0,0-6.71-3.9,46.22,46.22,0,0,0-9.86-2.46,61.39,61.39,0,0,0-11.17-.57,60.67,60.67,0,0,0-18.51,3.59A56.74,56.74,0,0,0,41.22,33a34.63,34.63,0,0,0-3.38,3.15,48.46,48.46,0,0,0-7.44,9.76A42.89,42.89,0,0,0,26,56.31c-.3,1.1-.61,2.19-.81,3.31a42.52,42.52,0,0,0-.66,9.95A37.69,37.69,0,0,0,27.81,83,38.08,38.08,0,0,0,39.07,97.27a46.68,46.68,0,0,0,9.66,6A48.35,48.35,0,0,0,61.35,107a50.85,50.85,0,0,0,9.39.57,53.92,53.92,0,0,0,7.71-.82,56.4,56.4,0,0,0,9.74-2.51c1.24-.45,2.45-1,3.67-1.49l.26-.11,1.55,4.44-.2.13a59.86,59.86,0,0,1-16.55,6.54A58.33,58.33,0,0,1,68.73,115a53.74,53.74,0,0,1-8.32,0,50.45,50.45,0,0,1-26-9.15A45.81,45.81,0,0,1,19.68,88.68a50,50,0,0,1-3.85-10.21,48,48,0,0,1-1.34-14.91,52,52,0,0,1,3-14.11c.66-1.84,1.32-3.68,2.14-5.45a49.78,49.78,0,0,1,12-16.17A58.5,58.5,0,0,1,50.83,16.41a62.86,62.86,0,0,1,13.24-3.28,73.35,73.35,0,0,1,12.3-.73,55.93,55.93,0,0,1,13.54,2.15,47.7,47.7,0,0,1,8.29,3.08,31.44,31.44,0,0,1,9.07,6.61,19,19,0,0,1,5,9.77,16.4,16.4,0,0,1,.07,5.46,21.16,21.16,0,0,0-.28,3.89,10.75,10.75,0,0,0,2.74,6.93c1,1.14,2.06,2.25,3.1,3.38.53.57,1.06,1.15,1.6,1.71a1.81,1.81,0,0,1,.42,1.76,5.24,5.24,0,0,1-.75,1.69,12.11,12.11,0,0,1-2.64,2.8,22.56,22.56,0,0,1-2,1.43,1,1,0,0,0-.25,1.58,5.57,5.57,0,0,1,.91,1.29,3.45,3.45,0,0,1,.13,2.86,4.93,4.93,0,0,1-.91,1.48l-.59.69a.5.5,0,0,0-.08.56l.33.72a3,3,0,0,1,.1,2.11,5.6,5.6,0,0,1-1.48,2.26c-.2.21-.41.41-.6.62a3.42,3.42,0,0,0-.79,1.66,2.47,2.47,0,0,0,.21,1.29c.14.37.32.72.48,1.07a7.87,7.87,0,0,1,.67,2.48,5,5,0,0,1-2.28,4.87,13.67,13.67,0,0,1-5.59,2.19,22.51,22.51,0,0,1-6.08.19,44.19,44.19,0,0,1-5-.7,7.29,7.29,0,0,0-5.48,1.17,14.08,14.08,0,0,0-2.81,2.29,21.18,21.18,0,0,1-2.88,2.56,13.7,13.7,0,0,1-5.22,2.42,8.76,8.76,0,0,1-5.83-.66,10,10,0,0,1-3.39-2.69,14.79,14.79,0,0,1-2.87-5.74A32,32,0,0,1,64,80.2a18,18,0,0,1,.5-3.94C64.56,76.16,64.57,76.07,64.58,76ZM49.06,72.74a18.11,18.11,0,0,0,.37,3.75,7.57,7.57,0,0,0,1.26,3,3.41,3.41,0,0,0,3.44,1.36,8,8,0,0,0,3-1.2A15.12,15.12,0,0,0,60.22,77a23,23,0,0,0,4.52-7.17,91.61,91.61,0,0,0,5.49-19.63,15.48,15.48,0,0,0,.11-4.56,7.64,7.64,0,0,0-.91-2.94,4.24,4.24,0,0,0-2.93-2.14,6.35,6.35,0,0,0-2.34,0,9,9,0,0,0-3.79,1.79,16.78,16.78,0,0,0-3.2,3.32,32.16,32.16,0,0,0-3.94,7.09A56.41,56.41,0,0,0,50,63.9a50.4,50.4,0,0,0-.92,8.84Z" style="fill:#f05e3e"/></svg>